<?xml version="1.0" encoding="UTF-8"?><svg id="Layer_1" xmlns="http://www.w3.org/2000/svg" width="32.21in" height="14.44in" viewBox="0 0 2319.28 1039.47"><defs><style>.cls-1{fill:#fff;}.cls-2{fill:none;stroke:red;stroke-miterlimit:10;stroke-width:10px;}</style></defs><line class="cls-2" x1="1761.06" y1="601.34" x2="1222.37" y2="848.66"/><line class="cls-2" x1="2317.2" y1="610.36" x2="1778.51" y2="857.68"/><line class="cls-2" x1="1435.88" y1="310.84" x2="2" y2="935.99"/><path d="M274.92,698l1.09-47.45c.64-28.04,19.91-54.54,34.32-77.9,12.51-20.27,36.62-22.98,54.42-9.36,15.7,12.02,23.9,28.82,29.96,48.23,19.69-11.26,34.23-26.37,49.02-41.51,14.75-15.11,35.25-17.59,51.89-5.48,7.04,5.12,16.41,2.92,20.93-4.66,5.86-9.83,8.93-21.56,9.88-33.62l10.4-131.39c3.44-43.42,18.75-80.76,35.04-120.71,2.93-7.19,9.37-11.69,16.2-11.54,17.28.37,15.13,20.14,21.23,42.13,3.35,12.09,2.12,22.08.09,34.4-8.31,50.26-12.57,100.44-13.05,151.49-.11,11.38,3.41,21.11,15.77,24.73,1.75-13.37,1.48-25.96-.54-40.11,18.44-38.82,61.77-62.06,104.16-53.28,18.01,3.73,35.95,15.94,39.46,33.78,2.7,13.73,4.31,25.24,8.63,40.02,24.8-16.16,31.77-36.19,52.93-55.34,11.37-10.29,27.33-11.85,40.1-3.72,11.26,7.16,24.37,5.74,33.28-5.13l26.96-32.91c9.5-11.59,24.64-13.97,36.71-6.33,7.15,4.53,16.96,1.71,21.57-5.27l12.14-18.38c2.44-3.7,8.38-7.87,12.1-7.42,5.19.64,9.38,4.55,12.65,8.39l3.61,4.24c.8.94,5.35-1.83,6.09-3.01l15.02-23.82c2.91-4.61,8.25-8.52,12.97-8.58,5.82-.07,10.02,4.26,14.34,9.71,4.06,5.13,13.3,1.11,18.56-2.55,5.78-4.02,4.94-11,4.72-18.89-.95-33.96,10.09-66.64,28.94-94.4,2.57-3.79,10.99-5.54,14.66-4.75,15.83,3.42,11.09,37.01,19.9,54.98,13.51,6.88,32.29,4.05,42.41-7.37,6.52-7.35,9.82-18.87,10.99-28.85,3.77-32.11,4.48-63.14,4.92-95.57.36-26.11,3.64-50.62,12.9-74.83,9.19-24.05,18.57-46.82,29.94-69.89,3.16-6.41,12.82-7.32,18.56-4.82s8.4,8.49,9.74,15.74l7.51,40.49c-4.33,38.15-8.51,74.61-10.71,113.18-4.49,78.86-13.49,151.04-55.16,219.25-21.92,35.87-64.17,63.58-104.44,38.31-18.23,24.98-42.99,44.62-74.23,42.77-14.22,15.69-32.07,20.59-51.57,25.24-22.66,12.98-33.24,23.99-62.33,16.32-26.83,30.56-60.8,74.03-104.51,41.72l-24.64,27.91c-23.35,26.45-64.84,52.48-100.75,34.43-13.73,15.39-26.85,29.78-43.74,40.41-33.01,20.79-78.28,21.97-104.5-11.33-54.51,79.56-87.24,28.67-97.04,38.57-13.41,13.55-29.01,26.48-45.57,36.38-12.63,109.9-68.77,239.8-169.08,295.2-35.52,19.62-75.33,27.91-114.88,21.46-42.14-6.87-73.09-33.57-87.43-73.38-10.37-28.8-10.13-58.38-8.92-89.23,1.14-29.21,2.5-56.48,9.83-85.01,12.37-48.13,31.79-92.89,58.8-134.52,3.84-5.91,10.13-9.15,16.82-8.6,4.68.38,11.81,6.03,13.04,11.63l8.8,39.98c1.49,6.75.17,15.83-2.56,22.39-12.87,30.94-43.63,94.25-36.22,125.31,10.18,42.7,114.32,61.48,188.74-10.35,26.53-25.61,45.92-56.18,53.7-93.09-14.33.98-27.33,1.77-39.65-3.95-15.08-7.01-25.33-21.95-24.91-40.47ZM306.91,679.87c11.98,3.8,22.46-.55,34.18.01,7.13.34,12.92,14.17,13.4,21.32,7.5,110.92-106.58,219.29-220.7,189.27-30.58-8.04-52.09-31.09-58.59-61.61-9.19-43.12,9.91-90.56,26.85-129.6l14.3-32.96c.77-1.78-.68-7.06-2.51-7.45-1.46-.31-5.73,1.51-6.55,2.81-41.92,66-80.11,163.02-60.46,241.57,10.4,41.57,44.21,70.27,87.39,74.74,36.03,3.73,71.16-6.29,102.33-25.81,90.27-56.53,144.28-181.5,150.37-284.42,20.29-9.74,36.03-22.92,50.91-38.2,8.74-8.97,20.23-11.62,31.18-4.81,35.89,22.32,65.7-31.05,79.83-59.01,9.13,34.5,39.29,51.21,72.26,42.53,32.64-8.59,50.89-31.86,72.75-57.85,44.08,32.6,86.78-16.03,112.17-48.26,7.62-9.67,18.76-12.12,28.15-4.68,22.43,17.76,43.93-.55,58.96-16.57l25.31-26.98c10.77-11.48,26.54,11.9,52.69-9.21l16.61-13.4c10.59,3.16,21.18.75,29.76-6.51l19.52-16.53c32.74,9.58,59.07-25,74.67-49.81,13.17,18.7,36.41,23.58,57.11,13.29,52.46-26.08,79.6-140.91,83.23-194.04l4.34-63.52c2.2-32.19,5.54-65.13,11.16-97.04.25-1.43-1.75-5.97-2.89-5.34-6.45,3.53-27.42,58.42-31.42,68.95-9.06,23.87-11.52,46.78-11.84,72.09-.41,32.1-1.45,63.09-5.25,94.77-1.56,12.99-5.18,26.71-14.02,36.06-12.4,13.1-31.32,16.67-48.55,12.91-25.53-5.58-21.93-37.02-25.82-58.17-18.75,24.68-29.8,57.3-27.79,88.18.96,14.79-1.04,24.13-15.64,31.74-11.95,6.23-26.3,5.41-34.51-8.69-9.49,13.67-21.5,41.91-38.83,35.26-3.73-1.43-7.3-6.31-11.41-11.83l-15.81,22.18c-8.16,11.44-23.14,14.17-34.68,7.86-10.44-5.71-19.77-1.8-26.68,7.2-16.48,21.44-37.75,57.35-70.14,36.97-29.38-18.49-43.59,31.83-79.37,57.12-14.66,10.36-31.11,16.17-50.3,11.18l16.47-26.81c6.08-9.89,8.25-22.5,3.6-33.53-3.76-8.92-13.08-16.42-24.56-19.89-59.68-18.03-105.57,47.14-91.27,46.67,4.21-.14,30.11-9.82,36.35,8.68l8.77,26.03c-15.42,10.36-32.33,15.15-50.83,13.54-41.82-3.63-47.41-53.94-46.75-87.59,1.08-54.84,6.66-107.88,17.09-161.81.33-1.69-1.56-5.61-2.99-6.15-7.98-3.01-33.32,80.12-35.26,91.59-8.8,51.9-10.09,102.2-14.5,154.4-1.37,16.26-3.6,31.68-12.09,45.13s-24.64,17.33-37.6,8.33c-11.28-7.84-25.42-7.42-35.85,3.09-19.62,19.77-38.65,41.44-67.54,49.23-3.2-23.86-21.16-62.55-46.87-59.16-7.37.97-16.51,6.94-20.86,14.68-11.59,20.58-20.98,41.73-29.47,63.82-5.62,14.62,3.55,29.29,18.53,34.04Z"/><path d="M1679.27,608.06l-63.09,65.47c-38.17,39.61-86.9,60.49-139.65,73.16-22.79,5.47-43.27,13.3-67.02,15.3-29.72,2.51-58.3,4.7-88.53,5.53-6.31.17-14.05-3.9-17.78-7.76-10.43-10.8-.54-23.2-5.18-59.42-.77-5.98,6.25-13.89,12.12-16.01l37.27-13.47c12.45-4.5-4.31-14.27,5.81-30.15l31.13-48.83c15.3-24,19.18-100.48,20.36-131.03.78-20.2,3.1-39.31,10.74-57.9l29.69-72.31c3.26-7.93,10.7-12.09,18.68-10.21,6.6,1.55,12.63,8.22,12.84,16.57.35,13.8,7.85,27.87,6.53,41.64l-8.63,90.17-3.69,41.43c12.23-4.63,23.71-8.5,36.07-8.31,21.27.33,36.97,12.48,44.53,32.1,2.54-13.39,2.36-26.71-.51-41.06,7.79-16.74,17.26-32.82,30.54-45.58,17.88-17.18,43.14-22.84,66.06-13.02l43.24,18.53c10.73,4.6,22.99,4.64,34.17,1.79s21.22,3.53,22.97,14.93c1.31,8.53,2.52,17.2,5.02,25.79,7.36,25.29-.57,52.99-22.65,68.57-18.46,13.02-34.56,27.01-51.04,44.1ZM1734.81,467.7c-7.51-5.18-20.19,8.65-50.49-4.41l-42.87-18.48c-37.26-16.06-66.27,22.34-78.45,50.9,7.48,18.74,20.4-35.13,63.57-12.21l44.84,23.81-29.31,30.65c-39.77,41.59-83.13,89.38-142.05,107.3,21.97-29.08,59.11-94.14,30.26-122.58-20.96-20.67-55.27-2.51-75.31,13.87-13.16,10.76-23.51,23.36-35.89,35.57,16.61-39.95,26.62-77.42,30.8-118.92l12.45-123.53c-19.86,27.91-27.21,58.26-39.07,87.3-5.31,13-6.16,27.9-6.81,41.86-1.2,25.86-1.86,50.33-5.51,75.9-9.99,69.97-16.32,59.63-47.56,111.97-1.42,2.38,1.02,8.52,3.2,9.18,1.81.54,5.69-.78,6.98-2.34,20.76-24.94,47.49-59.69,73.27-76.28,18.53-11.92,40.84-7.26,53.95,9.67,6.03,7.79,5.79,16.93-2.34,23.58-23.17,18.93-48.49,34.52-76.89,45.15l-107.4,40.18c-1.55.58-4.1,4.27-4.42,5.87-.25,1.28,4.1,3.87,5.46,3.81l75.24-3.31c29.78-1.31,55.6-10.39,83.91-17.31,50.8-12.42,95.78-34.57,132.07-72.9l58.25-61.53c17.78-18.78,36.94-33.17,57.64-48.7,5.9-4.43,17.77-30.42,12.47-34.08ZM1562.92,597.86c20.22-16.8,39.34-35.21,58.77-55.13-9.52-6.31-19.49-3.31-27.4,3.14l-15.2,12.37c-8.78,7.14-19.51.12-25.52-7.85,3.91,16.13,7.07,30.07,9.35,47.48Z"/><path d="M1783.91,754.26c4.49-48.87-9.14-45.33,12.99-61.32,45.88-33.14,99.45-68.18,124.35-120.19l33.45-69.89c6.11-12.77,14.32-21.71,28.16-17.43,3.93,1.21,7.95,7.25,8.96,12.39l6.2,31.63c5.79,29.55-5.64,35.57-5.04,64.43,12.69,10.81,28.99,9.58,43.39,4.76-13.32-37.84,8.79-78.96,31.83-108.53.09-19.54,12.4-40.42,22.66-57.95,1.72-2.94,6.85-6.43,9.75-6.73,17.73-1.87,15.6,29.47,69.44,46.41,26.98,8.49,56.92,16.79,61.72,50.06,1.3,9.04,3.08,17.96,5.66,26.61,11.24,37.71-3.21,72.68-26.21,102.57-18.57,24.12-49.52,21.16-78.42,19.54-7.06-.39-11.72,2.37-15.6,7.98-34.18,49.37-91.58,102.19-155.88,75.89-17.05-6.97-28.27-21.49-36.35-38.6-12.16,19.16-25.99,36.83-47.59,42.62l-68.2,18.29c-5.92,1.59-13.71-.39-18.28-4.36-3.93-3.41-7.62-11.1-6.97-18.17ZM1862.3,699.93c17.04-4.35,30.21-13.22,39.67-28.34l26.25-41.96,5.47,24.17c6.4,28.24,30.49,46.4,59.5,45.96,49.41-.74,87-45.99,113.21-83.69,4.18-6,9.09-8.12,16.75-7.41,21.65,2.02,57.37,6.29,70.56-11.26,12.79-17.02,22.45-36.03,26.57-56.69,4.31-21.58-6.51-40.93-26.95-48.11l-33.89-11.91c-23.37-8.21-41.36-22.12-56.9-43.44-8.95,13.6-18.09,28.11-20.46,43.33-.99,6.35-.35,11.41-4.47,16.65-18.35,23.28-54.2,81.12-18.87,105.67-25.89,13.14-63.67,18.41-79.87-8.15-19.96-32.74-5.14-62.42,1.78-97.01-6.01-2.43-11.02,2.13-13.52,7.39l-32.88,68.87c-15.62,32.73-37.81,59.78-66.71,81.28l-68.7,51.12c-1.72,1.28-4.4,5.55-2.95,6.78,1.16.99,5.8,2.22,7.73,1.73l58.69-14.98Z"/><path d="M1212.33,691.99c-2.69-6.52-2.5-16.32-.64-22.98,2.97-10.69-2.09-22.37-.36-31.82,6.4-34.8,13.45-67.32,15.37-102.35l4.16-75.96c2.73-49.88,22.35-92.05,42.71-137.33,3.26-7.26,11.12-10.56,18.22-8.72,6.52,1.7,10.9,7.94,11.76,15.88,1.4,12.93,7.45,26.8,7.83,39.99-19.94,112.79,1.42,225.97-62.8,325.21-4.38,6.76-11.35,11.4-18.3,10.95s-14.49-4.51-17.94-12.88ZM1231.51,638.64c59.12-94.37,36.36-198.28,59.63-309.09.41-1.94-1.75-5.65-2.94-5.13-8.79,3.88-36.67,82.06-40.37,98.32-13.16,57.82-1.78,128.47-25.4,213.9-.43,1.57,1.87,6.88,3.3,6.22,1.07-.49,4.62-2.38,5.78-4.22Z"/><path d="M1795.89,659.94c-23.53-12.37-3.01-37.85-11.92-65.75,8.36-32.53,14.3-64.39,16.31-97.83l4.91-81.67c2.96-49.34,21.93-90.3,42.76-134.59,2.91-6.19,9.79-10.15,15.8-9.32s11.99,6.18,13.12,12.35c3.91,21.47,10.05,38.75,7.44,55.24-17.63,111.62-.1,212.71-61.3,311.95-6.22,10.09-16.64,15.13-27.12,9.62ZM1848.33,452.46l5.42-79.72c1.86-27.34,6.41-59.49,10.8-84.75.33-1.9-1.33-4.9-2.35-4.78s-3.88,1.56-4.53,3.07c-11.75,27.35-27.44,60.55-35.22,91.51-12.56,50.01-2.58,126.74-26.29,217.42-.68,2.59,5.06,5.1,5.84,4.12,27.58-34.69,43.27-101.8,46.33-146.87Z"/><path d="M289.85,495.85c-12.41,15.62-30.01,44.13-50.24,28.52l-32.88-25.36c-18.19-14.04-4.66-23.42-7.89-52.03-.78-6.87-3.83-14.11-.26-20.27l32.44-56.03c5.77-9.97,17.38-12.39,26.62-6.45,11.07,7.1,20.03,15.03,29.51,25.7l21.05-32.05c12.07-18.37,37.01,4.34,47.26,14.32s14.55,21.94,15.57,36.78c1.13,16.4,30.03,47.78-29.56,102.29-8.18,7.48-20.13,7.97-28.78,1.54l-22.86-16.98ZM283.04,424.01l32.93,27.7c3.88,3.27,9.84,3.85,13.84-.2,10.3-10.39,18.72-21.59,25.16-34.8,11.56-23.69-14.95-46.98-35.66-54.74l-33.43,53.65c-4.55-16.39-13.78-26.94-27.44-36.38-3.34-2.31-11.46-8.07-15.03-4.61-13.43,19.8-24.86,40.44-35.24,60.75l41.19,32.45c14.61-12.15,24.92-26.72,33.66-43.83Z"/><path d="M774.47,354.75l-38.65-30.99c-9.68-7.76,1.11-29.08-1.76-47.97-.84-5.55-4.57-12.19-1.7-17.38,11.45-20.75,22.33-39.8,34.82-59.4,14.34-22.51,43.49,8.75,55.08,20.65l19.5-30.39c5.36-8.35,15.3-10.87,24.24-5.42,47.18,28.76,34.05,46.4,43.8,70.06,14.11,34.23-9.93,65.1-33.65,87.8-7.37,7.06-19.41,8.31-27.71,2.07l-23.34-17.52c-11.24,11.74-30.2,44.85-50.6,28.5ZM816.98,254.11l40.28,32.5c15.74-11.64,26.94-26.33,33.94-43.9,8.51-21.33-17.47-43.08-36.47-50.95l-34.87,53.06c-5.81-20.82-20.65-34.86-40.5-42.67-13.9,21.29-25.84,42.23-36.9,63.25,13.27,9.55,23.23,17.43,34.73,27.16,14.03,11.87,32.74-28.16,39.79-38.46Z"/><path d="M423.67,973.57l-36.62-29.01c-12.67-10.04-.57-28.69-3.97-49.39-1.23-7.5-2.8-14.47.9-21.25,10.71-19.56,21.74-37.83,33.98-56.48,13.14-20.01,42.45,8.84,53.86,22.2l20.71-31.67c14.56-22.26,54.57,14.21,59.81,34.93l9.78,38.65c2.97,11.73,2.41,24.08-3.08,35.27-8.21,16.72-19.71,31.7-33.44,43.94-8.64,7.71-20.29,7.16-29.2.63l-22.39-16.4c-10.28,14.74-30.11,44.59-50.33,28.57ZM466.67,874.24c12.51,8.77,23.02,17.22,34.07,26.94,3.35,2.95,9.67,3.75,12.95.49,14.34-14.27,37.17-40.28,25.5-60.75-7.84-13.76-20.38-24.26-35.12-28.93l-33.98,52.65c-6.45-20.37-20.82-35.14-40.52-42.86l-36.98,62.44,40.7,32.54c15.36-10.92,23.84-24.6,33.37-42.52Z"/><path d="M1630.84,370.12l-36.36-29.47c-10.52-8.53-.53-29.78-2.87-47.2-1.15-8.56-3.8-14.95.79-22.79l32.6-55.69c5.28-9.02,16.08-10.51,24.88-5.14,45.83,27.98,33.6,44.78,43.91,71.63,12.97,33.77-11.93,66.19-35.5,88.36-7.06,6.64-19.41,6.82-27.45.3ZM1674.22,269.97c9.55-21.31-17.45-46.19-37.04-52.33l-36.55,63.56c12.03,6.91,35.45,30.3,41.16,30.63,8.9.51,27.54-30.94,32.43-41.87Z"/><path d="M1963.32,425.7l-35.48-27.77c-13.37-10.47-2.44-25.61-4.44-48.94-.42-4.87-4.19-13.33-1.7-17.64l35.17-61.12c3.83-6.66,13.69-9.93,21.02-6.07,22.33,11.75,43.88,32.67,43.51,60.33,3.95,13.48,10.63,27.63,6.94,41.96-6.4,24.88-22.56,45.76-42.61,61.37-5.88,4.58-16.57,2.46-22.42-2.12ZM2004.52,303.45c-8.82-13.5-20.58-24.63-36.15-28.87-13.66,21.27-25.63,41.98-36.03,62.78l40.25,32.17c14.62-10.38,44.8-46.37,31.93-66.08Z"/><path d="M1093.01,197.55l-33.82-26.93c-14.45-11.51-1.34-29.05-4.94-49.12-1.49-8.3-4.13-15.2.26-22.68l33.57-57.31c5.08-8.68,17.35-8.03,25-3.02,43.94,28.72,32.37,42.9,42.69,71.41,5.06,13.99,5.2,27.65-.83,41.15-7.91,17.7-19.32,32.93-33.94,45.96-7.41,6.6-19.28,7.49-27.99.55ZM1134.52,102.41c13.17-25.04-13.83-48.13-35.25-56.2l-36.23,63.29,36.92,28.71c10.11,7.86,30.72-28.5,34.56-35.8Z"/><path class="cls-1" d="M306.91,679.87c-14.98-4.75-24.15-19.42-18.53-34.04,8.49-22.1,17.88-43.24,29.47-63.82,4.36-7.74,13.49-13.71,20.86-14.68,25.71-3.38,43.68,35.31,46.87,59.16,28.89-7.79,47.92-29.46,67.54-49.23,10.43-10.51,24.56-10.93,35.85-3.09,12.96,9.01,29.24,4.92,37.6-8.33s10.72-28.86,12.09-45.13c4.41-52.2,5.7-102.5,14.5-154.4,1.94-11.47,27.29-94.6,35.26-91.59,1.43.54,3.32,4.46,2.99,6.15-10.43,53.93-16.01,106.96-17.09,161.81-.66,33.65,4.93,83.96,46.75,87.59,18.51,1.6,35.41-3.19,50.83-13.54l-8.77-26.03c-6.24-18.5-32.13-8.82-36.35-8.68-14.3.47,31.59-64.7,91.27-46.67,11.47,3.47,20.8,10.97,24.56,19.89,4.65,11.03,2.47,23.64-3.6,33.53l-16.47,26.81c19.2,4.99,35.64-.82,50.3-11.18,35.78-25.29,49.98-75.61,79.37-57.12,32.39,20.38,53.66-15.53,70.14-36.97,6.92-9,16.24-12.9,26.68-7.2,11.54,6.31,26.52,3.58,34.68-7.86l15.81-22.18c4.11,5.53,7.68,10.4,11.41,11.83,17.32,6.65,29.34-21.59,38.83-35.26,8.2,14.1,22.55,14.92,34.51,8.69,14.61-7.61,16.61-16.95,15.64-31.74-2.01-30.87,9.04-63.5,27.79-88.18,3.9,21.16.29,52.6,25.82,58.17,17.23,3.76,36.15.19,48.55-12.91,8.84-9.34,12.47-23.06,14.02-36.06,3.79-31.68,4.84-62.67,5.25-94.77.32-25.31,2.78-48.22,11.84-72.09,4-10.53,24.97-65.43,31.42-68.95,1.14-.63,3.15,3.91,2.89,5.34-5.61,31.91-8.96,64.85-11.16,97.04l-4.34,63.52c-3.63,53.13-30.77,167.96-83.23,194.04-20.7,10.29-43.95,5.42-57.11-13.29-15.6,24.81-41.93,59.39-74.67,49.81l-19.52,16.53c-8.58,7.26-19.17,9.67-29.76,6.51l-16.61,13.4c-26.15,21.1-41.92-2.28-52.69,9.21l-25.31,26.98c-15.03,16.02-36.53,34.33-58.96,16.57-9.39-7.44-20.53-4.99-28.15,4.68-25.39,32.23-68.08,80.86-112.17,48.26-21.86,25.99-40.11,49.26-72.75,57.85-32.97,8.68-63.13-8.03-72.26-42.53-14.13,27.96-43.94,81.33-79.83,59.01-10.95-6.81-22.44-4.16-31.18,4.81-14.89,15.27-30.62,28.45-50.91,38.2-6.09,102.92-60.1,227.89-150.37,284.42-31.17,19.52-66.3,29.55-102.33,25.81-43.18-4.48-76.99-33.17-87.39-74.74-19.65-78.54,18.54-175.57,60.46-241.57.83-1.3,5.09-3.12,6.55-2.81,1.83.39,3.28,5.67,2.51,7.45l-14.3,32.96c-16.94,39.05-36.04,86.49-26.85,129.6,6.51,30.53,28.02,53.57,58.59,61.61,114.12,30.02,228.2-78.35,220.7-189.27-.48-7.15-6.26-20.98-13.4-21.32-11.72-.56-22.2,3.79-34.18-.01Z"/><path class="cls-1" d="M1734.81,467.7c5.3,3.66-6.57,29.65-12.47,34.08-20.69,15.54-39.86,29.93-57.64,48.7l-58.25,61.53c-36.29,38.33-81.27,60.48-132.07,72.9-28.31,6.92-54.12,16-83.91,17.31l-75.24,3.31c-1.36.06-5.71-2.53-5.46-3.81.32-1.61,2.87-5.29,4.42-5.87l107.4-40.18c28.4-10.63,53.73-26.22,76.89-45.15,8.14-6.65,8.38-15.79,2.34-23.58-13.12-16.93-35.43-21.6-53.95-9.67-25.77,16.59-52.51,51.34-73.27,76.28-1.3,1.56-5.18,2.88-6.98,2.34-2.18-.66-4.62-6.8-3.2-9.18,31.24-52.34,37.57-42,47.56-111.97,3.65-25.57,4.31-50.04,5.51-75.9.65-13.96,1.5-28.86,6.81-41.86,11.86-29.04,19.21-59.39,39.07-87.3l-12.45,123.53c-4.18,41.51-14.19,78.98-30.8,118.92,12.38-12.2,22.72-24.8,35.89-35.57,20.04-16.39,54.35-34.55,75.31-13.87,28.85,28.44-8.29,93.51-30.26,122.58,58.92-17.91,102.28-65.7,142.05-107.3l29.31-30.65-44.84-23.81c-43.17-22.92-56.09,30.95-63.57,12.21,12.17-28.56,41.18-66.96,78.45-50.9l42.87,18.48c30.3,13.06,42.98-.77,50.49,4.41Z"/><path class="cls-1" d="M1562.92,597.86c-2.28-17.41-5.45-31.35-9.35-47.48,6.01,7.97,16.74,14.99,25.52,7.85l15.2-12.37c7.92-6.44,17.88-9.44,27.4-3.14-19.43,19.92-38.55,38.33-58.77,55.13Z"/><path class="cls-1" d="M1862.3,699.93l-58.69,14.98c-1.93.49-6.56-.74-7.73-1.73-1.45-1.23,1.22-5.5,2.95-6.78l68.7-51.12c28.9-21.5,51.08-48.55,66.71-81.28l32.88-68.87c2.51-5.26,7.52-9.82,13.52-7.39-6.92,34.59-21.74,64.27-1.78,97.01,16.2,26.57,53.98,21.3,79.87,8.15-35.33-24.55.52-82.38,18.87-105.67,4.13-5.24,3.48-10.29,4.47-16.65,2.37-15.22,11.51-29.74,20.46-43.33,15.54,21.32,33.53,35.23,56.9,43.44l33.89,11.91c20.45,7.19,31.26,26.53,26.95,48.11-4.12,20.66-13.79,39.67-26.57,56.69-13.19,17.55-48.9,13.28-70.56,11.26-7.66-.71-12.57,1.4-16.75,7.41-26.21,37.7-63.8,82.94-113.21,83.69-29.01.44-53.1-17.72-59.5-45.96l-5.47-24.17-26.25,41.96c-9.46,15.12-22.62,23.99-39.67,28.34ZM2080.98,567.58c14.47,6.79,28.57,2.31,38.34-8.98,9.05-10.46,12.52-24.89,4.95-36.62-6.08-9.43-20.29-19.11-32.32-13.89-13.5,5.86-22.49,20.78-24.79,34.28-1.98,11.62,3.72,20.46,13.82,25.21ZM2198.35,559.27c3.37-22.25-29.55-34.86-48.06-38.05-2.77,17.8-7.46,31.68-15.12,48.07,15.56,5.35,59.78,12.41,63.19-10.02Z"/><path class="cls-1" d="M1231.51,638.64c-1.15,1.84-4.71,3.72-5.78,4.22-1.43.66-3.74-4.64-3.3-6.22,23.61-85.43,12.24-156.08,25.4-213.9,3.7-16.26,31.58-94.44,40.37-98.32,1.19-.52,3.35,3.19,2.94,5.13-23.27,110.81-.51,214.72-59.63,309.09Z"/><path class="cls-1" d="M1848.33,452.46c-3.06,45.07-18.75,112.18-46.33,146.87-.78.98-6.52-1.53-5.84-4.12,23.71-90.68,13.73-167.41,26.29-217.42,7.78-30.96,23.46-64.16,35.22-91.51.65-1.52,3.56-2.96,4.53-3.07s2.68,2.89,2.35,4.78c-4.39,25.26-8.95,57.4-10.8,84.75l-5.42,79.72Z"/><path class="cls-1" d="M283.04,424.01c-8.75,17.11-19.05,31.69-33.66,43.83l-41.19-32.45c10.38-20.31,21.81-40.95,35.24-60.75,3.57-3.46,11.69,2.3,15.03,4.61,13.66,9.44,22.88,20,27.44,36.38l33.43-53.65c20.71,7.77,47.22,31.05,35.66,54.74-6.45,13.21-14.87,24.41-25.16,34.8-4.01,4.04-9.96,3.46-13.84.2l-32.93-27.7Z"/><path class="cls-1" d="M816.98,254.11c-7.05,10.29-25.76,50.33-39.79,38.46-11.5-9.73-21.46-17.62-34.73-27.16,11.06-21.02,23-41.96,36.9-63.25,19.84,7.81,34.69,21.85,40.5,42.67l34.87-53.06c19.01,7.88,44.98,29.62,36.47,50.95-7,17.56-18.2,32.25-33.94,43.9l-40.28-32.5Z"/><path class="cls-1" d="M466.67,874.24c-9.53,17.91-18.02,31.59-33.37,42.52l-40.7-32.54,36.98-62.44c19.69,7.71,34.07,22.49,40.52,42.86l33.98-52.65c14.74,4.67,27.28,15.17,35.12,28.93,11.67,20.47-11.16,46.48-25.5,60.75-3.28,3.26-9.6,2.46-12.95-.49-11.05-9.72-21.57-18.17-34.07-26.94Z"/><path class="cls-1" d="M1674.22,269.97c-4.9,10.93-23.54,42.38-32.43,41.87-5.71-.33-29.13-23.73-41.16-30.63l36.55-63.56c19.59,6.14,46.59,31.02,37.04,52.33Z"/><path class="cls-1" d="M2004.52,303.45c12.87,19.72-17.31,55.71-31.93,66.08l-40.25-32.17c10.4-20.81,22.37-41.51,36.03-62.78,15.56,4.24,27.33,15.37,36.15,28.87Z"/><path class="cls-1" d="M1134.52,102.41c-3.84,7.3-24.45,43.66-34.56,35.8l-36.92-28.71,36.23-63.29c21.42,8.07,48.42,31.15,35.25,56.2Z"/><path d="M2080.98,567.58c-10.1-4.74-15.8-13.58-13.82-25.21,2.3-13.51,11.29-28.43,24.79-34.28,12.03-5.22,26.24,4.46,32.32,13.89,7.57,11.74,4.1,26.16-4.95,36.62-9.76,11.29-23.87,15.77-38.34,8.98Z"/><path d="M2198.35,559.27c-3.4,22.43-47.62,15.38-63.19,10.02,7.67-16.4,12.35-30.28,15.12-48.07,18.52,3.19,51.44,15.8,48.06,38.05Z"/></svg>