<?xml version="1.0" encoding="UTF-8"?><svg id="Layer_1" xmlns="http://www.w3.org/2000/svg" width="39.11in" height="21.33in" viewBox="0 0 2816 1536"><defs><style>.cls-1{fill:#fff;}</style></defs><path class="cls-1" d="M0,1535V0h2816v1536H0v-1ZM1189.16,875.36c3.25,23.42-1.11,42.96-5.31,63.52-3.18,15.59-9.5,26.76-21.78,37.61-53.13,46.88-141.1,95.61-214.66,84.5-27.61-4.17-53.49-17.59-69.78-40.75-22.54-32.05-19.79-65.69-10.7-101.28.87-3.39,1.12-7.69-2.12-10.01-51.67,20.03-81.29,51.96-116.34,93.6-11.64,13.84-24.62,26.58-38.82,36.98-22.43,16.44-49.91,12.15-67.08-8.19-14.64-17.35-23.06-35.68-22.36-60.08,1.18-41.62,20.88-86.27,45.26-117.96,1.09-1.42,1.61-5.8.58-5.7s-4.35.97-5.34,2.14c-22.32,26.41-38.56,61.75-45.63,96.42-3.42,16.74-2.43,31.6-1.97,48.05.63,22.69,6.17,45.48,22.05,63.01,21.61,23.86,55.86,28.03,83.72,10.75,16.58-10.29,30.09-24.71,42.93-39.69l36.23-42.27c14.48-16.89,32.23-29.52,51.79-40.26-4.81,43.01,4.1,92.55,37.1,120.84,42.33,36.29,92.31,33.41,142.46,16.53,47.84-16.11,91.16-41.66,129.88-73.48,14.41-11.84,20.9-25.52,25.52-42.79,7.39-27.67,15.1-54.61,14.03-83.21,26.24.44,46.11-13.96,56.66-35.79,2.77-5.74,6.05-11.33,9.28-16.15,4.81,15.26,11.55,25.47,23.24,35.08-16.41,26.75-29.89,55.06-36.42,86.19-5.18,24.7-2.78,67.51,8.32,89.57s32.04,39.1,58.2,38.67c17.08-.28,33.63-8.28,46.15-19.29,36.6-32.19,50.71-64.7,97.36-98.7,29.59-21.56,62.62-29.32,92.58-45.61,22.33-12.15,42.75-32.59,48.36-58.06,2.42-10.96,3.12-21.65,6.26-32.35,6.81-23.17,9.21-46.61,8.39-71.36-2.04-61.48-7.97-120.84-14.72-181.85-5.09-46.06-8.5-89.59-8.39-136.72l18.47,16.46c12.19-11.11-8.27-61.41-13.8-77.27-3.98-11.43-18.88-57.9-25.9-61.8-.82-.46-3.69,1.49-4.2,2.75l-20.04,49.43c3.64,8.02,6.43,14.98,6.6,23.32,1.41,65.79,6.71,129.44,12.11,195.02l13.06,158.55,4.87,70.29c.72,10.46-3.38,17.98-12.71,23.33-23.65,13.53-48.58,23.69-74.5,33.23-109.05,40.13-118.12,118.14-180.7,142.91-17.95,7.1-35.4-3.05-40.56-20.79-10.98-37.72,9.52-83.85,27.57-115.3,13.21,5.47,29.82,11.64,40.79,1.16,21.51-20.54,29.39-70.38,5.44-98.87,55.91-22.11,116.59-45.46,174.53-50.66l18.17-33.56c1.9-3.5,3.59-10.74.9-13.83l-156.71-38.12c-48.41-11.78-131.52-33.17-143.36,36.5-2.57,15.14-1.62,28.99,9.41,40.66,12.17,12.88,25.24,23.41,40.79,35.59-21.99,11.09-35.12,27.92-45.74,47.8-10.04,18.79-29.4,29.18-50.28,23.49-27.22-7.41-30.11-34.14-39.06-33.71-1.48.07-4.3,3.19-4.8,4.91l-11.63,39.44c12.73,26.31,22.36,51.65,27.34,80.24,1.1,6.33-1.97,12.89-6.8,16.98-19.44,16.43-39.47,29.91-61.68,42.62-52.85,30.23-148.03,62.25-197.92,12.14-20.75-20.85-25.77-52.06-17.82-79.34,30.8-11.91,72.69-27.52,88.53-55.95,19.01-34.12,25.76-71.74,24.73-110.87-.91-34.76-3.75-67.28-7.41-102.12-7.39-70.42-14.37-138.91-16.83-210.99l19.8,15.34c4.18-13.72,3.18-24.47-1.17-36.14l-28.18-75.6-8.28-21.98c-.5-1.33-2.86-3.62-4.09-3.64-6.12-.09-22.42,45.51-23.73,52.82,3.56,11.55,6.77,23.57,7.61,36.35l8.32,127.24,13.66,164.72c3.6,43.39,7.27,84.19,7.76,127.59-17.91,20.1-68.87,36.82-95.25,46.14-41.3,14.59-76.12,37.41-105.28,70.02l-35.99,40.26c-10.97,12.27-22.89,23.44-37.7,30.72-13.33,6.55-30.55,6.92-41.67-3.4-25.87-24.01-6.78-81.97,7.24-109.2l18.01-35c.51-.99-.31-6.48-1.02-5.97-10.62,7.58-28.08,46.62-33.22,59.73-10.95,27.92-20.36,78.49,6.73,98.23,16.46,11.99,37.57,9.99,54.28-.88,32.32-21.03,57.28-60.53,90.79-90.72,54.96-49.51,116.73-50.18,168.97-85.24,3.73-2.5,11.3-9.67,11.21-14.51-1.12-58.16-7.06-113.62-11.67-171.54l-9.11-114.4-9.67-143.89c-.62-9.2-3.47-18.26-6.45-26.44,3.42-12.94,8.57-25.55,15.17-38.87,13.92,33.07,25.47,63.7,36.99,96.82,1.27,3.66.99,9.38.35,13.03l-16.53-18.08c-2.31,2.18-5.28,7.44-5.09,11.26l3.23,64.42,9.11,104.05,7.49,77.42,3.04,38.47c3.99,50.59,2.31,86.37-17.97,132.05-16.48,37.12-57.96,48.34-94.11,63.25-8.1,30.2-3.54,68.72,20.66,91.44,22.23,20.86,51.94,30.1,82.51,27.85,41.65-3.07,80.97-15.59,117.3-35.89,24.39-13.63,46.75-28.08,68.25-45.48,6.87-5.56,11.56-14.08,10.27-23.45-4.1-29.69-13.65-56.59-26.84-84.1l9.82-30.44c11.63,20.15,26.87,31.76,46.71,32.32,20.18.57,37.76-10.43,47.41-28.79,16.78-31.91,27.51-34.11,54.73-53.11-16.29-10.2-47.58-32.21-55.62-49.94-7.28-16.06-1.38-38.7,10.61-51.24s30.64-16.38,47.7-15.13c22.46,1.64,43.95,5.1,65.82,10.53l113.51,28.16c15.72,3.9,29.59,6.63,45.57,11.28l-15.79,31.82c-30,2.89-57.16,9.74-85.56,19-33.2,10.83-65.69,21.59-97.52,37.49,9.68,12.89,18.99,23.6,19.44,39.4.54,18.97-2.99,43.43-18.74,55.7-11.03,8.6-27.09-1.21-38.22-5.75-18.69,40.29-41.77,78.14-31.7,124.49,2.64,12.16,9.51,22.16,18.15,26.9,10.9,5.99,23.11,7.05,34.3,2.13,12.72-5.58,25.67-13.64,35.5-23.66,15.19-15.48,28.48-31.07,42.25-47.74,26.21-31.73,58.69-54.47,97.32-69.24,28.93-11.06,72.67-26.39,94.12-47.17,1.96-17.9.64-34.64-.66-52.65l-6.81-94.22-13.35-161.71c-3.89-47.16-6.25-91.91-7.17-138.84-.12-6.15-3.28-13.1-6.01-18.66,4.61-13.06,9.16-24.23,16.07-38.77,8.13,19.25,13.75,35.57,19.96,53.92,6.49,19.18,15.06,35.91,15.83,57.79l-18.25-21.09c-2.07,4.9-3.47,10.02-3.42,15.5.46,49.74,3.59,97.12,8.89,146.5,6.4,59.61,12.83,117.4,14.52,177.33.86,30.36-3.29,58.03-13.79,86.07-7.28,19.44-21.71,34.29-39.87,45.09-46.33,27.55-91.09,21.86-148.32,86.8l-43.31,49.13c-9.94,11.28-23.34,21.04-37.1,27.01-16.94,7.35-34.54-.29-47.36-12.54-47.96-45.86-13.09-125.81,17.38-174.01-14.77-11.12-24.84-28.27-27.05-46.04-.26-2.08-4.02-5.61-5.34-4.64-12.62,9.32-15.78,65.99-76.15,60.68ZM1103.75,767.01c-1.9-56.19-5.69-108.34-12.23-162.99-6.93-57.89-13.2-113.38-15.42-171.95l19.53,19.68c4.96-12.54,4.56-23.42.48-34.37l-37.98-101.93c-.6-1.61-3.6-5.65-5-4.92s-4.61,3.66-5.27,5.38l-18.04,47.16,6.41,13.38c2.96,122.88,35.37,331.47,33.52,445.39l-.91,55.79c-.04,2.39,4.33,6.88,6.55,7.04s6.53-3.07,7.61-5.54c15.32-35.16,22.13-72.09,20.77-112.12ZM1718.13,724.93c-3.77-99.38-20.2-188.06-23.11-287.55,9.32,3.19,8.89,13.18,17.27,15.64,6.39,1.88,5.41-20.92,2.74-28.51l-37.06-105.54c-.62-1.76-3.59-3.9-4.75-3.85-4.28.17-20.82,40.57-21.02,50.9-.16,8.58,4.55,18.52,4.85,28.11,1.86,58.83,6.84,115.02,11.48,173.95l16.5,209.8c1.7,21.59.81,40.76-.32,62.4-.13,2.58,1.46,7.24,3.33,8.37,9.37,5.67,16.61-14.03,18.72-21.31,9.68-33.31,12.73-66.35,11.36-102.4ZM2108.75,591.13l-8.87-118.99c-1.01-13.48-2.64-24.63-1.89-39.06l18.13,23.12c7.81-11.98,5.33-23.96,1.4-36.07-3.59-11.1-35.17-104.92-40.54-104.51-6.85.53-22.1,45.76-23.65,52.92,3.84,8.62,5.74,16.58,6.19,25.32l4.33,83.03,22.36,284.74c2.96,37.66,3.36,72.95,1.51,110.01-.3,6.06-.59,9.19,5.57,12.14,3.13,1.5,8.75-.58,10.93-5.52,35.21-79.72,10.89-201.8,4.53-287.13ZM1894.07,470.19c22.17-37.19,9.97-82.75-18.69-111.83-2.49,5.58-3.86,11.39-4.36,16.95,25.85,24.88,30.55,58.98,23.05,94.88ZM919.24,509.96c3.17-31.24-3-43.14-2.5-72.38l9.92,6.94-12.68-20.18c-5.06,9.42-7.47,14.85-8.79,24.79l8.06-11.01,1.6,25.97,1.12,27.9c.28,7.06.21,12.75,3.27,17.96ZM1153.21,589.25c.92-1.3,3.86-4.78,5.42-5.53,58.21-27.69,117.35-50.77,177.85-73.82l169.13-64.43c3.39-1.29,6.04-7.44,5.55-10.97l-203.9,76.77-143.24,58.93c-11.23,4.62-20.66,16.18-15.88,28.68,1.88,4.91,12.18,7.32,18.18,6.5,3.19-9.76-16.14-11.84-13.11-16.14ZM1538.37,518.21c4.73-8.5,6.79-13.91,7.54-23.26-1.91,2.08-3.06,4.23-6.17,9.35l-2.51-40.08-2.33-26.4c-3.67,22.57,2.21,43.22.94,64.38l-3.53-5.32c-.38-.57-2.91,1.14-2.63,1.75l8.7,19.56ZM472.16,637.17c8.26,27.38,11.36,52.68,14.32,81.32,5.16-20.95,3.05-42.67-2.3-63.18l-12.37-47.41c-2.03-7.8,1.73-16.04,9.7-18.83s18.39-4.06,27.6-5.15c4.2-.49,9.74-11.14,7.27-14.66-7-9.95-17.56-16.42-28.09-21.37l7.76-55.33c.37-2.61,4.54-7.29,7.08-7.53,2.12-.2,6.89,1.62,8.24,3.32l6.03,7.57c4.09-5.14,5.26-13.94,1.55-19.82-3.15-4.98-12.72-10.43-18.97-5.57-5.24,4.07-8.64,14.18-9.68,21.07l-5.07,33.45c-10.54-16.13-20.64-42.75-41.63-41.33-3.14,4.08-6.76,14.85-4.73,19.27,4.09,8.91,15.96,12.51,24.97,8.93,8.16,11.36,15.24,24.68,18.64,37.71-14.32,17.43-10.03,28.96-7.36,24.96l2.41-3.6c1.5-2.24,6.47-5.52,9.37-5.5,2.3.02,5.62,3.58,6.97,6.37-15.78,2.72-26.27,11.37-28.09,27.91-1.25,11.39,2.57,24.74,6.39,37.4ZM1107.61,561.15c3.73-10.16,5.1-14.19,6.24-23.01l-6.05,8.29-7.58-69.27c-4.46,8.3-1.47,16.36-.69,24.95l4.15,45.74c-2.87-4.18-3.88-6.29-8.52-7.88,4.62,8.94,7.15,13.14,12.45,21.18ZM2129.73,555.84l-2.22-21.67-2.14-22.03c-.73-7.52-1.9-15.21-5.52-23.64l4.13,45.49,2.18,23.94c-4.05-4.6-5.16-6.63-9.35-8.1l12.56,19.62c4.24-8.79,6.31-14.14,7.68-23.42l-7.31,9.82ZM1726.03,575l7.98-22.92-7.92,12.17-2.59-30.34-2.05-23.96-2.01-20.26c-5.33,3.31-2.56,8.96-2.07,14.75l1.99,23.51,2.81,33.99-7.55-6.19c3.53,8.02,5.88,11.35,11.41,19.25ZM1869.8,529.85l-5.89,15.68c4.5-3.66,5.43-3.81,5.58-.66l1.27,27.14c.27,5.84,6.12,12.74,10.58,13.77,5.32,1.23,13.5-1.26,16.32-5.37l7.65-11.14c5.91,7.25,10.8,11.68,17.71,11.55,12.59-.24,20.82-19.42,14.24-38.63l-9.22-26.93c-4.44,7.19-4.96,15.87-2.45,23.51l7.67,23.27c-4.06,3.39-10.5,4.37-14.1,2.2-3.16-1.91-7.44-7.36-8.11-11.1l-6.49-36.34c-14.87,9.82,3.17,29.54-4.78,46.62-2.52,5.42-9.39,8.04-14.65,7.19-4.38-.71-9.07-7.02-8.87-12.47l.96-26.31c.04-1.23-1.08-5.4-2.13-4.84s-3.94,2.05-5.3,2.86ZM1453.31,539.41c-6.07,7.59-8.69,12.07-11.22,18.25,14.3-15.64-3.11,33.23,21.32,35.32,3.94.34,11.04-2.73,12.85-5.82l6.5-11.11c5.09,7.4,14.98,14.15,23.27,7.28,6.3-5.22,9.36-18.55,6.78-26.39l-9.36-28.48c-11.03,16.42,3.13,26.9,2.92,42.03-2.33,3.34-11.53,1.9-14.33-1.19-9.44-10.45-4.08-23.66-11.79-36.77-11.56,12.87,6.06,29-4.05,42.3-2.51,3.31-10,6.14-14.18,3.72-12.19-7.05-3.74-28.38-8.71-39.15ZM1727.68,640.76c13.33-3.86,22.07-9.67,32.4-14.99,17.49-11.21,32.63-24.13,44.14-42.15l18.1,2.61c9.82-7.49,11.38-22.12,3.36-32.12-6.09-7.6-24-23.38-33.02-18.48-5.28,2.87-.64,8.47-8.03,26.72-1.31,3.24-1.83,12.39.73,14.45,2.23,1.8,5.64,3.32,11.76,6.49-19.67,24.73-48.29,37.31-69.44,57.47ZM2329.19,637.83c59.21-16.5,50.86-4.31,81.48-55.28-1.05-12.96-53.28-11.63-63.02-11l-18.33,26.99c-.8,1.18-1.28,6.16-.73,7.33,1.24,2.66,6.07-2.75,7.16-3.18,13.84-5.38,33.92-5.42,49.28,1.07-7.89,11.68-44.9,20.41-55.83,34.07ZM1892.93,694.97l13.64-37.95c15.88,28.67,22.52,87.53,25.7,120.92,2.16,22.66,6.5,43.68,19.92,62.37,16.78,23.38,50.6,28.61,74.32,8.39.41-9.58-2.34-18.98-5.58-27.9l-20.39-56.06c-8.49-23.35-11.59-46.94-14.33-71.85l-5.2-10.9,12.31-33.87,33.88,57.55-14.41-6.36c-1.57.59-3.43,7.68-2.57,10.2l10.34,30.42c7.22,21.24,16.71,41.79,18.99,64.74,2.74,27.6-4.78,59.07-21.4,81.34-13.77,18.46-42.37,16.38-59.58,6.3-17.94-10.51-28.96-25.53-34.02-45.28-2-7.78-3.92-14.97-9-23.08-6.61,17.85-8.93,32.92-16.99,48.16-7.73,14.61-18.85,27.83-33.94,35.03-13.59,6.48-30.99,7.22-45.06,1.57-22.3-8.96-35.49-30.15-39.35-53.66-3.13-19.08-1.16-38.68,2.39-57.92l9.42-51.12c.36-1.97-.77-7.79-2.54-7.4-1.42.31-5.27,1.92-6.16,3.25-31.63,47.33-25.73,118.38-53.7,157.43-10.37,14.49-28.58,16.48-42.33,5.23-10.35-8.47-18.04-20.57-22.7-33.65-16.79-47.08-14.38-77.02-6.83-123.55.2-1.2-2.02-4.35-2.51-3.82s-2.53,2.16-3.02,4.2c-8.5,35.73-9.33,82.02,3.42,118.58,2.36,6.77,1.13,13.25,2.34,19.25,3.58,17.67,27.79,55.86,54.3,51.47,25.13-4.16,30.98-31.91,35.93-52.77l19.5-82.19c3.09-13.02,5.56-25.01,12.45-36.88l-8.23,60.87c-1.6,11.85.99,24.25,1.04,35.7.1,22.18,5.07,40.55,20.49,56.86,24.13,25.53,62.15,27.03,88.75,2.95,17.65-15.98,25.3-37.46,32.73-60.25l5.57,14.33c-21.95,26.41-36.35,55.7-46.38,88.2-5.66,18.32-3.55,35.53-2.93,54.26.84,25.7,10.09,51.27,32.23,65.97,16.88,11.2,37.45,13.01,55.75,4.55,24.42-11.28,44.42-27.23,64.51-44.86,37.71-33.08,85.96-77.26,135.92-84.31,30.3-4.28,58.88,6.37,80.15,26.14,2.17,2.02,8.68.47,9.18-1.88l11.51-53.76-5.13-9.35c-2.3-7.48-5.26-12.13-11.74-15.86-20.19-11.61-61.34-37.01-62.03-62.4,5.74-16.95,20.78-31.02,36.73-37.96,13.09-5.7,14.37,78.53,73.91,76.89,24.4-.67,44.13-14.92,57.81-37.22,8.56,15.97,20.88,25.69,35.45,27.44,16.4,1.97,32.11-4.54,41.44-18.41l11.88-17.65c13.27,19.64,35.02,32.01,58.89,27.61,14.51-2.68,26.05-13.1,33.03-26.04,6.51-12.09,8.99-25.89,12.59-39.22,6.49-24.06,6.43-47.71-2.63-71.1l-24.36-62.9c6.38.71,14.19,1.78,14.21-2.43.03-8.86-4.97-15.37-9.96-22.42l-31.1-43.94c-.57-.8-3.04-2.15-3.88-1.83s-3.05,2.42-3.42,3.5l-10.88,31.78c-2.82,8.23.54,12.85,2.61,20.1,7.3,25.61,11.44,51.6,21.72,76.36,9.01,21.72,17.61,42.21,25.07,64.93-22.51,13.91-49.97,4.26-59.3-20.32l-.21-18.52c-18.51-11.94-20.8,15.15-32.94,37.08-5.86,10.58-20.26,15.22-31.66,12.34-6.32-1.59-12.35-6.88-14.6-11.93-5.9-13.2,8.88-26.35,1.72-31.62-23.15-17.03-24.35,56.23-85.74,51.16-17.16-1.42-31.54-12.94-37.68-28.62l-7.9-20.17c-3.54-9.02-11.57-14.6-22.46-12.1-45.59,10.44-88.66,92.82-71.16,141.06-59.27,13-100.13,44.3-144.06,82.44l-36.54,31.73c-17.2,14.94-60.53,38.64-77.35,12.68-22.06-34.05,8.35-88.49,29.4-120.62,11.75,15.95,26.76,24.74,45.95,27.62,17.88,2.68,38.35-2.85,48.78-18.75,9.35-14.26,12.84-31.42,16.55-47.85,10.08-44.74,7.76-55.9-6.95-98.47l-14.84-42.97c5.96,1.89,9.58,3.24,12.4,2.67,2.46-.5,4.83-8.09,3.51-10.56-4.57-8.6-37.76-71.5-44.07-68.95-.84.34-2.73,2.32-3.07,3.25l-13.43,36.09c-2.83,7.6,2.35,11.39,3.28,17.5,4.95,32.65,10.99,64.34,22.82,95.72,6.85,18.17,13.45,35.5,18.69,53.61-20.33,16.35-47.61,10.81-62.03-9.49-11.64-16.39-15.98-35.57-18-55.81-2.87-28.66-6.05-56-12.19-83.8-1.75-7.9-12.62-51.12-22.15-47.15-1.5.62-4.21,3.58-4.82,5.32l-15.57,44.19c8.42,46.09,40.07,148.79-25.72,166.54l-2.75-12.08,2.54.38c.55.08.45-3.64-.1-3.63-4.04.08-13.61,2.6-15.73,4.2,4.89,1.72,7.9,2.85,9.36,5.1,1.03,1.6-2.82,6.22-5.05,6.75-20.72,4.99-42.78-14.85-45.27-38.49-4.49-42.55,16.76-81.45,12.36-126.31-.37-3.74-3.24-9.34-5.75-10.99-13.22-8.68-34.74,19.21-41.69,32.78-15.67,30.62-24.2,62.9-30.96,96.66-3.02,15.08-13.04,54.88-29.53,57.4-19.15,2.92-30.13-23.62-33.93-40.11-5.94-25.78-6.93-51.69-4.27-78.04.43-4.23-.78-8.14-5.41-11.07-4.69,36.58-4.9,101.25,21.51,129.26,5.38,5.71,14.51,9.16,21.73,8.16,22.61-3.12,32.48-42.62,36.43-61.95,6.9-33.71,24.53-115.01,61-127.61,11.09,8.42-.52,60.09-3.37,74.24-4.09,20.33-7.73,40.61-4.94,60.91,3.84,27.92,26.47,47.3,54.65,44.74,25.48-2.32,45.53-19.86,52.95-44.16,12.35-40.46-2.73-90.53-10.18-134.29ZM1311.42,612.59l-6.73,9.53,19.48-10.04c-7.59-4.77-10.33-6.27-19.24-10.24l4.41,7.07c-24.83.82-53.96,6.27-69.63,28.52,24.16-17.91,42.79-25.5,71.72-24.84ZM225.25,939.98c-.4,9.51,1.9,20.31,4.23,29.04l6.05,22.68c10.83,40.63,60.85,57.63,95.58,35.57,52.05-33.07,75.39-74.68,143.3-103.16,40.82-17.12,83.38-11.3,119.5,16.82,8.18-19.21,20.65-62.67,6.73-77.47-15.2-16.16-38.56-15.84-66.85-56-2.25-3.2-4.68-11.34-4.99-15.65,6.37-11.02,39.38-58,51.09-33.21,13.49,28.57,29.27,48.93,63.82,53.96l3.3,25.46c.21,1.63,1.59,4.51,2.35,5.75s6.22-.8,6.84-2.49l10.9-30.11c91.21-18.97,129.72-78.88,230.91-65.99,4.39.56,10.97.46,14.73.07,5.99-11.44,12.16-22.83,18.45-33.29,1.75-2.92,3.26-11.92.13-12.5l-69.74-12.78c-51.41-9.42-130.96-54.03-169.28-54.33-21.77-.17-43.91,7.83-55.95,25.55-18.12,26.67-19.38,59.3-10.41,90.27-19.91-9.49-27.04-68.7-59.7-48.97-34.93,21.1-56.05,58.03-62.48,98.6-2.36,14.88-1.22,29.06,3.8,42.89-30.65,3.52-83.06,30.04-104.99,48.06l-60.36,49.6c-14.7,12.08-30.34,22.31-48.22,28.05-18.34,5.89-35.91-3.18-41.47-21.9-3.57-12.04-3.18-25.84,1.07-38.61,8.27-24.81,19.6-49.55,36.32-69.75,5.83-7.04,13.6-11.73,17.7-20.74,1.72-3.78,18.48-46.21,7.08-42.75-8.99,2.73-7.6,16.73-19.5,21.03-14.57,5.26-19.82-31.42-10.49-56.96l19.3-52.85c-13.36,11.94-13.51,28.97-23.94,39.52,6.35-28.89,23.98-49.23,32.41-75.91-28.63,33.65-73.83,143.45-44.47,180.75-25.18,33.07-40.99,70.6-42.73,111.76ZM889.78,672.25l-19.54-13.7,3.52,8.47-72.18-18.66c21.63,12.8,47.75,16.17,72.47,22.46,1.21.31.69,1.18.08,1.76l-4.31,4.08c6.24.45,12.62-1.11,19.96-4.41ZM1849.87,661.56c-1.26,1.66-1.38,8.1.01,9.12,3.33,2.44,11.39-2.52,10.84-7.67-.42-4-3.36-10.18-8.23-10.01-8.88.32-12.93,10.36-9.83,15.2,3.72-5.28,5.38-7.19,9.62-10.73l5.14,3.24c.75.47-1.46,2.43-2.31,2.19s-4.72-2.04-5.25-1.34ZM1180.84,744.69c10.75-31.84,9.1-64.13-19.8-81.09-3.51,3.82-6.13,13.16-2.98,15.55,18.02,13.67,26.33,32.8,20.05,54.89-.99,3.49-1.01,7.49,2.73,10.66ZM1330.82,746.77c35.75-14.65,68.25-26.07,103.48-37.09,3.5-1.1,6.67-3.59,8.09-6.55-40.75-12.28-79.03-21.4-120.43-26.61-10.14-1.28-55.78-4.5-56.83,5.36-.17,1.62,1.23,5.36,2.86,6.69,22.58,18.38,43.68,33.87,62.83,58.2ZM2058.99,765.96l3.06-22.76-5.56,6.95c-3.17-12.86-3.79-25.06-10.31-36.15l7.91,39.18-8.96-4.39c5.08,8.13,6.78,9.97,13.85,17.16ZM2417.36,766.5l-7.66,2.43c3.19-13.09,9.7-22.61,9-36.38l-12.43,34.28-4.34-2.63,3.47,15.83,11.96-13.52ZM1429.69,775.55l34.03-11.3-1.94,7.77,14.42-14.01c-8.87-2.08-15.1-2.6-22.48-1.74l7.88,4.36-33.02,12.02c-13.59,4.95-27.02,7.57-39.78,14.46,14.98-2.55,27.56-7.12,40.9-11.55ZM1848.51,757.98c-3.53,1.59-5.99,8.1-4.2,10.46,2.06,2.73,7.38,4.45,9.83,3,3.12-1.86,5.65-7.66,4.06-10.08-1.34-2.05-7.49-4.37-9.7-3.37ZM1445.49,819.51l-1.33-19.48c-5.38,3.29-9.08,9.69-8,13.46,4.57,15.95,1.76,26.47,15.1,27.82,6.48.66,11.7-5.18,15.7-11.34,5.96,1.88,14.26,6.04,20.06,1.64,3.93-2.98,8.65-11.68,7.23-17.23l-6.39-25.12c-8.41,9.82-1.98,19.56-.32,29.22-1.09,2.57-6.98,3.86-9.15,2.5-2.37-1.49-6.22-6.35-6.72-9l-3.95-20.63c-10.62,13.98,2.79,27.85-10.08,36.47-1.85,1.24-8.04,1.01-9.63-.53-1.27-1.23-2.32-5-2.51-7.78ZM855.09,805.95c4.5-2.15,7.38-7.47,6.86-12.79l-124.93,57.92c-2.8,2.86-5.28,9.38-5.69,13.94l123.77-59.06ZM1340.65,838.25c-1.88-11.97-7.08-17.07-13.53-23.38-11.23-7.04-23.12-12.31-37.7-12.85-1.32,20.6,34.21,41.72,51.23,36.23ZM453.66,834.45l-4.17,11.1c7.7-6.93,10.71-10.74,15.96-19.68l-24.37.26,9.33,5.01-18.41,9c-22.15,10.82-41.06,26.06-59.21,42.39,29.22-16.95,46.34-36.61,80.87-48.08ZM1450.93,875.07l.4,7.78,10.64-15.49c-8.18-2.09-14.06-.98-22.13,2.49l8.01,2.72c-18.92,13.52-40.83,26.07-52.79,47.72,16.88-17.98,35.17-34.21,55.87-45.22ZM1058.88,917.99c3.75-6.19,2.59-13.42-3.4-17.18l-32.05-20.09c-1.9-1.19-7.21-2.66-8.79-1.24-4.26,3.84-20.13,30.9-23.7,41.25,16.19,11.67,30.91,21.19,47.96,30.25l19.98-33ZM2531.51,922.79c4.1-6.16,2.17-13.19-3.19-16.83l-32.29-21.89c-2.01-1.36-8.4-2.06-9.68.16l-22.94,39.72c15.82,12.2,28.89,21.37,46.38,31.46l21.72-32.62ZM746.19,923.4l9.37-8.82-1.29,6.45c-.18.9,1.41,1.29,3.44,1.98,3.03-7.34,5.51-14.77,7.64-23.72l-22.15,10.12,7.48,4.62-59.14,62.29c21.62-14.09,36.64-33.95,54.65-52.91ZM2595.36,910.76c-1.67.44.44,7.15,1.69,5.98l4.31-4.03c1.19-1.11-3.49-2.62-6-1.95ZM959.59,966.49c-4.86,3.31-7.79,5.64-10.21,6s-7.36-6.23-6.83-8.69l7.14-33.15c-9.38,7.37-19.7,44.35-7.27,54.37,1.52,1.22,7.47,1.13,9.25-.08,4.93-3.34,9.42-13.35,7.92-18.45ZM1652.63,1012.93l109.48-49.05c6.5-2.91,13.27-4.11,11.81-14.63l-79.7,35.49-68.24,29.64c-7.3,3.17-13.05,8.59-12.1,16.74l38.75-18.19ZM2280.16,1041.6l-25.18,12.96c26.32-1.96,47.43-15.16,64.39-33.17,52.84-56.1,51.07.33,76.5-30.92,4.7.86,14.93,3.54,18.43.15,8.42-8.14,12.96-19.89,6.5-31.22-2.61,5.03-4.82,13.09-6.26,19.16-1,1.08-7.04,1.74-7.92.01l-4.72-9.25c-6.17,2.23-6.49,16.06-19.49,18.58-11.25-5.54-21.51-7.75-32.4-1.3-33.27,19.7-34.03,36.57-69.85,55ZM499.96,1044.44l21.14-33.58,38.13,26.28,17.65-28.33c2.87-4.61,6.55-12.47,4.74-18.14l-44.06-30.22-20.44,33.5-39.02-26.07c-4.96,10.29-31.28,41.01-20.19,48.44l42.04,28.13ZM1036.33,970.16c-2.54,1.32-4,7.65-2.43,10.36,1.03,1.78,5.71,2.45,7.45.68,1.44-1.46,2.46-4.77,2.35-6.94-.11-2.04-5.41-5.11-7.36-4.1ZM2508.91,1005.71l46.11-19.3c5.9-2.47,10.89-7.31,9.41-14.25l-103.41,43.32c-6.78,2.84-12.87,9.02-10.6,15.91l58.51-25.67ZM1021.11,990.16c-3.33,1.27-5.7,2.79-7.1,2.47l-6.37-1.45c1.64,4.33,5.67,10.99,9.15,12.92,5.37-2.79,7.04-11.67,4.33-13.95ZM1119.85,1069.35l97.09-52.78c5.35-2.44,8.66-8.13,6.86-13.96l-93.69,49.84c-6.04,3.21-11.44,10.62-10.26,16.9ZM2067.12,1069.46l113.56-54.98c4.57-2.21,7.46-7.44,6.71-13.02l-105.95,50.43c-7.76,3.69-14.71,8.31-14.31,17.57ZM327.78,1081.62l92.03-48.34c5.65-2.97,12.4-4.66,9.23-14.61l-90.22,46.55c-6.58,3.4-12.3,7.26-11.04,16.4Z"/><path d="M1189.16,875.36c60.37,5.31,63.54-51.36,76.15-60.68,1.32-.97,5.08,2.56,5.34,4.64,2.21,17.77,12.28,34.93,27.05,46.04-30.47,48.2-65.35,128.15-17.38,174.01,12.82,12.26,30.42,19.9,47.36,12.54,13.76-5.97,27.16-15.73,37.1-27.01l43.31-49.13c57.24-64.94,102-59.25,148.32-86.8,18.17-10.81,32.59-25.65,39.87-45.09,10.5-28.05,14.65-55.71,13.79-86.07-1.69-59.93-8.12-117.72-14.52-177.33-5.3-49.38-8.43-96.76-8.89-146.5-.05-5.48,1.35-10.6,3.42-15.5l18.25,21.09c-.76-21.88-9.33-38.61-15.83-57.79-6.21-18.35-11.83-34.67-19.96-53.92-6.91,14.54-11.46,25.71-16.07,38.77,2.73,5.57,5.89,12.51,6.01,18.66.92,46.93,3.27,91.69,7.17,138.84l13.35,161.71,6.81,94.22c1.3,18.01,2.62,34.74.66,52.65-21.45,20.78-65.19,36.11-94.12,47.17-38.62,14.77-71.11,37.51-97.32,69.24-13.77,16.67-27.06,32.26-42.25,47.74-9.84,10.02-22.79,18.07-35.5,23.66-11.19,4.91-23.4,3.86-34.3-2.13-8.64-4.75-15.51-14.75-18.15-26.9-10.07-46.36,13-84.2,31.7-124.49,11.13,4.54,27.2,14.35,38.22,5.75,15.74-12.28,19.28-36.73,18.74-55.7-.45-15.8-9.75-26.51-19.44-39.4,31.83-15.9,64.31-26.66,97.52-37.49,28.4-9.26,55.56-16.11,85.56-19l15.79-31.82c-15.98-4.66-29.85-7.38-45.57-11.28l-113.51-28.16c-21.87-5.42-43.36-8.88-65.82-10.53-17.06-1.25-35.68,2.56-47.7,15.13s-17.89,35.18-10.61,51.24c8.04,17.74,39.33,39.74,55.62,49.94-27.22,19-37.95,21.2-54.73,53.11-9.66,18.37-27.24,29.36-47.41,28.79-19.84-.56-35.09-12.17-46.71-32.32l-9.82,30.44c13.19,27.51,22.74,54.41,26.84,84.1,1.29,9.37-3.39,17.89-10.27,23.45-21.5,17.4-43.86,31.85-68.25,45.48-36.32,20.3-75.64,32.82-117.3,35.89-30.57,2.25-60.28-6.99-82.51-27.85-24.21-22.72-28.77-61.24-20.66-91.44,36.15-14.9,77.62-26.12,94.11-63.25,20.28-45.67,21.96-81.46,17.97-132.05l-3.04-38.47-7.49-77.42-9.11-104.05-3.23-64.42c-.19-3.81,2.78-9.07,5.09-11.26l16.53,18.08c.64-3.65.92-9.37-.35-13.03-11.52-33.12-23.07-63.75-36.99-96.82-6.6,13.32-11.75,25.94-15.17,38.87,2.98,8.18,5.83,17.24,6.45,26.44l9.67,143.89,9.11,114.4c4.61,57.92,10.55,113.39,11.67,171.54.09,4.84-7.48,12.01-11.21,14.51-52.24,35.05-114.01,35.72-168.97,85.24-33.52,30.2-58.47,69.7-90.79,90.72-16.72,10.88-37.83,12.87-54.28.88-27.09-19.74-17.68-70.31-6.73-98.23,5.14-13.11,22.6-52.15,33.22-59.73.72-.51,1.53,4.98,1.02,5.97l-18.01,35c-14.02,27.23-33.11,85.19-7.24,109.2,11.12,10.32,28.34,9.95,41.67,3.4,14.81-7.28,26.73-18.45,37.7-30.72l35.99-40.26c29.15-32.61,63.98-55.43,105.28-70.02,26.39-9.32,77.35-26.04,95.25-46.14-.49-43.41-4.16-84.2-7.76-127.59l-13.66-164.72-8.32-127.24c-.84-12.78-4.05-24.8-7.61-36.35,1.31-7.31,17.61-52.91,23.73-52.82,1.23.02,3.59,2.31,4.09,3.64l8.28,21.98,28.18,75.6c4.35,11.67,5.34,22.42,1.17,36.14l-19.8-15.34c2.46,72.08,9.45,140.57,16.83,210.99,3.65,34.84,6.49,67.35,7.41,102.12,1.03,39.13-5.72,96.75-24.73,130.87-15.85,28.43-62.74,44.05-93.53,55.95,1.23,25.35,2.07,38.49,22.82,59.34,49.89,50.12,145.08,18.09,197.92-12.14,22.22-12.71,42.25-26.19,61.68-42.62,4.83-4.09,7.9-10.65,6.8-16.98-4.97-28.59-14.61-53.93-27.34-80.24l11.63-39.44c.51-1.72,3.32-4.84,4.8-4.91,8.95-.43,11.84,26.3,39.06,33.71,20.88,5.69,40.24-4.7,50.28-23.49,10.62-19.88,23.75-36.72,45.74-47.8-15.55-12.18-28.62-22.71-40.79-35.59-11.03-11.67-11.98-25.52-9.41-40.66,11.84-69.68,94.96-48.28,143.36-36.5l156.71,38.12c2.69,3.09.99,10.33-.9,13.83l-25.17,47.56c-57.94,5.2-104.62,28.55-160.53,50.66,23.95,28.48,9.07,64.32-12.44,84.87-10.97,10.48-27.58,4.31-40.79-1.16-18.05,31.45-38.55,77.59-27.57,115.3,5.16,17.74,22.61,27.9,40.56,20.79,62.58-24.77,71.64-102.79,180.7-142.91,25.92-9.54,50.86-19.7,74.5-33.23,9.34-5.34,13.44-12.87,12.71-23.33l-4.87-70.29-13.06-158.55c-5.4-65.58-10.71-129.23-12.11-195.02-.18-8.33-2.96-15.3-6.6-23.32l20.04-49.43c.51-1.26,3.38-3.21,4.2-2.75,7.01,3.9,21.91,50.37,25.9,61.8,5.53,15.86,25.98,66.17,13.8,77.27l-18.47-16.46c-.11,47.13,3.3,90.66,8.39,136.72,6.75,61.01,12.67,120.38,14.72,181.85.82,24.75-1.58,48.19-8.39,71.36-3.14,10.7-3.84,21.39-6.26,32.35-5.62,25.47-26.03,45.91-48.36,58.06-29.96,16.29-62.99,24.05-92.58,45.61-46.65,34-60.76,66.51-97.36,98.7-12.52,11.01-29.06,19.01-46.15,19.29-26.15.43-47.02-16.43-58.2-38.67s-13.5-64.88-8.32-89.57c6.53-31.13,20.01-59.44,36.42-86.19-11.68-9.62-18.43-19.82-23.24-35.08-3.23,4.83-6.5,26.41-9.28,32.15-10.55,21.83-30.43,36.23-56.66,35.79,1.07,28.6-6.65,39.55-14.03,67.21-4.61,17.27-11.11,30.95-25.52,42.79-38.72,31.81-82.04,57.37-129.88,73.48-50.15,16.89-100.13,19.77-142.46-16.53-33-28.3-41.92-77.83-37.1-120.84-19.55,10.74-37.31,23.37-51.79,40.26l-36.23,42.27c-12.84,14.98-26.35,29.41-42.93,39.69-27.86,17.28-62.1,13.1-83.72-10.75-15.88-17.53-21.42-40.32-22.05-63.01-.46-16.45-1.45-31.3,1.97-48.05,7.07-34.67,23.32-70.01,45.63-96.42.99-1.17,4.34-2.03,5.34-2.14s.51,4.28-.58,5.7c-24.37,31.68-44.08,76.34-45.26,117.96-.69,24.4,7.73,42.74,22.36,60.08,17.16,20.34,44.65,24.63,67.08,8.19,14.19-10.4,27.17-23.15,38.82-36.98,35.04-41.64,64.67-73.57,116.34-93.6,3.24,2.32,2.98,6.61,2.12,10.01-9.09,35.59-11.84,69.23,10.7,101.28,16.29,23.17,42.17,36.58,69.78,40.75,73.55,11.11,161.53-37.62,214.66-84.5,12.29-10.84,18.6-22.02,21.78-37.61,4.19-20.56,8.56-40.09,5.31-63.52Z"/><path d="M1859.63,862.29c30.1-8.79,41.55-43.05,40.37-71.83-1.8-44.1-10.05-69.97-14.97-93.9l15.57-44.19c.61-1.74,3.33-4.7,4.82-5.32,9.53-3.98,20.41,39.24,22.16,47.15,6.14,27.8,9.33,55.14,12.19,83.8,2.02,20.24,6.36,39.42,18,55.81,14.42,20.3,41.69,25.84,62.03,9.49-5.24-18.11-11.84-35.45-18.69-53.61-11.84-31.38-17.87-63.07-22.82-95.72-.93-6.11-6.1-9.9-3.28-17.5l13.43-36.09c.34-.92,2.23-2.9,3.07-3.25,6.31-2.55,39.49,60.34,44.07,68.95,1.31,2.47-1.05,10.06-3.51,10.56-2.81.57-6.43-.78-12.4-2.67l14.84,42.97c14.7,42.57,17.03,53.74,6.95,98.47-3.7,16.43-7.2,33.6-16.55,47.85-10.43,15.9-30.9,21.43-48.78,18.75-19.19-2.88-34.2-11.66-45.95-27.62-21.06,32.13-51.47,86.57-29.4,120.62,16.83,25.97,60.16,2.26,77.35-12.68l36.54-31.73c43.93-38.15,84.79-69.44,144.06-82.44-17.5-48.23,25.58-130.62,71.16-141.06,10.89-2.49,18.92,3.08,22.46,12.1l7.9,20.17c6.14,15.67,20.52,27.2,37.68,28.62,61.38,5.07,62.58-68.2,85.74-51.16,7.16,5.27-7.61,18.43-1.72,31.62,2.26,5.05,8.28,10.34,14.6,11.93,11.39,2.87,25.8-1.76,31.66-12.34,12.14-21.93,14.44-49.02,32.94-37.08l.21,18.52c9.33,24.58,36.8,34.23,59.3,20.32-7.46-22.72-16.06-43.21-25.07-64.93-10.28-24.77-14.42-50.76-21.72-76.36-2.07-7.25-5.43-11.87-2.61-20.1l10.88-31.78c.37-1.08,2.59-3.18,3.42-3.5.83-.32,3.31,1.03,3.88,1.83l31.1,43.94c4.99,7.05,9.99,13.56,9.96,22.42-.01,4.21-7.83,3.14-14.21,2.43l24.36,62.9c9.06,23.4,9.12,47.04,2.63,71.1-3.6,13.33-6.07,27.13-12.59,39.22-6.97,12.94-18.52,23.37-33.03,26.04-23.87,4.4-45.62-7.96-58.89-27.61l-11.88,17.65c-9.34,13.87-25.04,20.38-41.44,18.41-14.56-1.75-26.88-11.47-35.45-27.44-13.68,22.29-33.41,36.55-57.81,37.22-59.54,1.64-60.82-82.58-73.91-76.89-15.95,6.94-30.99,21.01-36.73,37.96.69,25.38,41.84,50.79,62.03,62.4,6.48,3.73,9.44,8.38,11.74,15.86l5.13,9.35-11.51,53.76c-.5,2.35-7.01,3.9-9.18,1.88-21.27-19.77-49.85-30.42-80.15-26.14-49.96,7.06-98.21,51.23-135.92,84.31-20.09,17.62-40.09,33.58-64.51,44.86-18.31,8.45-38.87,6.65-55.75-4.55-22.14-14.7-31.39-40.27-32.23-65.97-.61-18.72-2.73-35.94,2.93-54.26,10.04-32.49,24.44-61.79,46.39-88.2l-5.57-14.33c-7.43,22.79-15.08,44.28-32.73,60.25-26.61,24.08-64.63,22.58-88.75-2.95-15.41-16.31-20.39-34.67-20.49-56.86-.05-11.45-2.64-23.85-1.04-35.7l8.23-60.87c-6.89,11.87-9.36,23.86-12.45,36.88l-19.5,82.19c-4.95,20.86-10.79,48.61-35.93,52.77-26.51,4.39-50.72-33.8-54.3-51.47-1.22-6.01.02-12.49-2.34-19.25-12.75-36.56-11.93-82.85-3.42-118.58.49-2.04,2.52-3.65,3.02-4.2.48-.54,2.7,2.62,2.51,3.82-7.56,46.53-9.96,76.47,6.83,123.55,4.66,13.08,12.35,25.18,22.7,33.65,13.74,11.25,31.96,9.25,42.33-5.23,27.96-39.05,22.07-110.1,53.7-157.43.89-1.33,4.74-2.94,6.16-3.25,1.78-.38,2.91,5.43,2.54,7.4l-9.42,51.12c-3.55,19.24-5.52,38.84-2.39,57.92,3.86,23.51,17.05,44.7,39.35,53.66,14.08,5.66,31.48,4.91,45.06-1.57,15.09-7.2,26.21-20.42,33.94-35.03,8.06-15.24,10.38-30.31,16.99-48.16,5.08,8.11,7,15.3,9,23.08,5.06,19.75,16.08,34.77,34.02,45.28,17.21,10.08,45.81,12.16,59.58-6.3,16.62-22.27,24.14-53.74,21.4-81.34-2.28-22.95-11.77-43.5-18.99-64.74l-10.34-30.42c-.86-2.53,1-9.61,2.57-10.2l14.41,6.36-33.88-57.55-12.31,33.87,5.2,10.9c2.73,24.91,5.84,48.5,14.33,71.85l20.39,56.06c3.24,8.92,5.99,18.33,5.58,27.9-23.72,20.22-57.54,14.99-74.32-8.39-13.42-18.69-17.76-39.71-19.92-62.37-3.18-33.39-9.83-92.26-25.7-120.92l-13.64,37.95c7.44,43.76,22.53,93.83,10.18,134.29-7.42,24.3-27.47,41.85-52.95,44.16-28.18,2.56-50.81-16.82-54.65-44.74-2.79-20.3.85-40.58,4.94-60.91,2.85-14.15,14.45-65.82,3.37-74.24-36.47,12.6-54.1,93.9-61,127.61-3.95,19.33-13.82,58.83-36.43,61.95-7.22.99-16.35-2.46-21.73-8.16-26.41-28.01-26.2-92.68-21.51-129.26,4.63,2.93,5.84,6.83,5.41,11.07-2.66,26.35-1.66,52.26,4.27,78.04,3.8,16.49,14.78,43.03,33.93,40.11,16.49-2.52,26.51-42.32,29.53-57.4,6.75-33.76,15.29-66.04,30.96-96.66,6.95-13.58,28.47-41.47,41.69-32.78,2.51,1.65,5.38,7.25,5.75,10.99,4.35,44.36-23.19,98.09-8.62,136.17,6.77,17.71,21.22,26.63,41.53,28.63,3.95.2,7.54-.21,12.05-1.52ZM1859.11,851.4,1887.2,1036.65c10.8,20.83,34.52,33.97,57.86,28.6,19.23-4.42,35.08-15.75,49.61-28.53l57.37-50.44c19.34-17,40.75-30.62,64.15-41.31,21.5-9.82,44.38-13.53,67.79-11.97,20.39,1.36,35.92,9.42,55.03,20.55,4.09-11.58,6.56-21.39,9.68-34.41-25.7-20.96-49.71-26.39-68.95-58.56-4.77-7.98-8.48-17.86-3.56-26.69,9.32-16.72,37.53-46.74,52.84-38.37,5.75,3.14,14.85,22.15,17.84,29.17,9.61,22.6,32.07,34.56,57.47,29.33,37.25-7.68,50.89-54.23,53.97-38.31,2.37,12.26,10.62,25.05,22.26,29.45,12.37,4.68,27.02,2.11,37.07-7.58,19.97-19.26,21.59-42.61,29.2-26.96,10.87,22.35,33.97,35.85,58.54,28.32,30.84-9.45,40.49-73.65,31.71-97.83l-31.69-87.31c4.77-1.88,8.9-.87,16.26-.06l-34.8-49.8c-15.26,47.01-8.19,21.85-1.21,58.12,5.94,30.87,15.63,59.11,28.48,87.64,6.43,14.27,11.06,28.45,14.13,44.32-19.98,16.03-46.44,12.83-63.88-4.32-9.62-9.46-11.6-19.47-11.7-34.87-13.51,17.97-12.95,47-39.37,53.76-12.52,3.2-23.48.52-32.48-7.32-17.11-14.91,1.87-41.67-3.98-38.61-8.89,4.65-14.91,22.6-30.37,37.55-15.8,15.27-38.59,20.12-59.16,14.15-14.19-4.12-26.15-13.93-31.73-27.32l-10.87-26.06c-2.16-5.18-10.91-7.38-16.61-4.93-32.3,13.88-52.51,47.49-62.52,79.81-6.24,20.16-4.79,40.54,4.51,60.2-69.37,6.03-124.49,56.96-173.28,100.56-21.17,18.92-68.92,53.79-95.15,29.51-36.55-33.82-.14-101.08,22.54-134.19,1.87-2.73,1.67-7.16-1.48-8.04-32.04,42.27-61.7,102.37-35.56,152.77Z"/><path d="M225.25,939.98c1.74-41.16,17.55-78.69,42.73-111.76-29.36-37.3,15.84-147.1,44.47-180.75-8.44,26.68-26.07,47.02-32.41,75.91,10.44-10.56,10.58-27.59,23.94-39.52l-19.3,52.85c-9.33,25.54-4.07,62.22,10.49,56.96,11.91-4.3,10.51-18.29,19.5-21.03,11.4-3.47-5.36,38.97-7.08,42.75-4.09,9.01-11.87,13.7-17.7,20.74-16.72,20.2-28.05,44.94-36.32,69.75-4.26,12.77-4.65,26.57-1.07,38.61,5.56,18.72,23.13,27.79,41.47,21.9,17.88-5.74,33.53-15.97,48.22-28.05l60.36-49.6c21.93-18.02,74.34-44.55,104.99-48.06-5.03-13.83-6.16-28.01-3.8-42.89,6.43-40.57,27.56-77.51,62.48-98.6,32.65-19.72,39.79,39.49,59.7,48.97-8.97-30.97-7.71-63.6,10.41-90.27,12.04-17.72,34.18-25.72,55.95-25.55,38.33.3,117.88,44.91,169.28,54.33l69.74,12.78c3.13.57,1.62,9.58-.13,12.5-6.29,10.46-12.45,21.85-18.45,33.29-3.75.39-10.34,19.49-14.73,18.93-101.19-12.88-139.7,47.02-230.91,65.99l-10.9,11.11c-.61,1.69-6.06,3.75-6.84,2.49s-2.14-4.12-2.35-5.75l-3.3-8.46c-34.55-5.04-50.33-25.4-63.82-53.96-11.71-24.79-44.72,5.19-51.09,16.21.3,4.31,2.73,12.45,4.99,15.65,28.29,40.17,51.66,39.84,66.85,56,13.92,14.8,1.45,58.26-6.73,77.47-36.12-28.12-78.68-33.94-119.5-16.82-67.92,28.49-91.25,70.09-143.3,103.16-34.72,22.06-84.74,5.06-95.58-35.57l-6.05-22.68c-2.33-8.73-4.63-19.53-4.23-29.04ZM245.26,982.38c14.41,23.17,40.72,31.53,66.9,21.31,18.95-7.4,34.37-21.51,50.11-35.35,27.17-23.89,54.3-46.3,86.07-63.47,43.66-23.6,98.35-29.02,140.63,2.29l9.36-37.3c-25.03-18.83-49.04-24.53-68.22-53.78-4.06-6.19-11.37-17.88-8.48-25.55,7.4-19.67,23.76-34.53,40.61-45.36,30.58-19.65,20.44,54.89,86.7,59.33l5.27,19.51,6.36-20.56c22.87-3.77,44.25-9.87,64.68-19.84l52.34-25.57c40.9-19.98,84.58-26.48,130.41-19.58l16.96-32.44c-52.6-6.11-98.76-18.54-145.68-37.98-19.89-8.24-38.93-15.79-59.24-22.69-16.26-5.52-33.25-5.52-49.55-1.66-20.35,4.82-32.29,20.3-38.13,39.59-14.48,47.84,5.84,65.85,9.25,77.66,1.27,4.39-18.79,4.01-34.24-21.84l-16.51-27.61c-5.08-8.51-15.01-9.16-23.11-3.89-32.22,20.94-51.56,55.18-57.43,93.12-2.61,16.85-.1,32.44,10.29,47.35-48.98,1.55-103.25,36.14-138.2,66.29-24.84,21.43-59.47,54.09-90.65,60.75-21.33,4.56-41.56-8.18-47-29.43-9.63-37.59,18.69-85.11,38.61-116.12,13.88-4.43,21.22-21.74,24.99-34.9-5.01,3.12-9.78,6.75-13.47,7.42-11.43,2.05-21.15-15.87-21.22-31.13l-.12-27.13c-7.75,21.97-17.49,65.74,3.94,83.58-31.55,40.98-61.95,107.2-32.22,155Z"/><path d="M2108.75,591.13c6.36,85.33,30.68,207.41-4.53,287.13-2.18,4.94-7.8,7.02-10.93,5.52-6.16-2.94-5.88-6.08-5.57-12.14,1.86-37.06,1.45-72.34-1.51-110.01l-22.36-284.74-4.33-83.03c-.46-8.74-2.35-16.71-6.19-25.32,1.55-7.16,16.79-52.39,23.65-52.92,5.38-.41,36.95,93.41,40.54,104.51,3.92,12.11,6.41,24.09-1.4,36.07l-18.13-23.12c-.76,14.42.88,25.57,1.89,39.06l8.87,118.99ZM2113.23,715.84l-10.96-117.79-9.37-116.45c-1.55-19.23-2.92-39.89-1.62-58.4.61-1.75,3.24-6.73,3.38-7.02l17.07,20.61c.13-10.12-1.49-17.37-4.51-25.59l-30.36-82.61c-6.65,13.31-11.15,24.71-15.28,37.86,2.25,7.2,4.81,15.95,5.31,24l9.94,159.41,7.77,90.35,9.42,131.68c2.49,34.83,1.94,67.22,1.87,103.38,10.44-20.35,14.13-40.95,17.29-62.81,3.75-32.41,3.1-63.99.06-96.63Z"/><path d="M1103.75,767.01c1.35,40.04-5.45,76.96-20.77,112.12-1.08,2.48-5.39,5.7-7.61,5.54s-6.58-4.64-6.55-7.04l.91-55.79c1.85-113.92-30.56-322.51-33.52-445.39l-6.41-13.38,18.04-47.16c.66-1.73,3.87-4.65,5.27-5.38s4.4,3.3,5,4.92l37.98,101.93c4.08,10.95,4.48,21.83-.48,34.37l-19.53-19.68c2.22,58.57,8.49,114.06,15.42,171.95,6.54,54.65,10.33,106.8,12.23,162.99ZM1096.6,763.05c-1.58-32.54-2.61-62.06-5.73-93.32l-19.91-199.45-2.2-38.48c-.33-5.81,1.1-12.3,3.46-17.89,6.48,8.39,11.6,14.8,20,22.48-2.69-19.09-9.62-33.58-15.86-50.13l-23.83-63.25c-6.13,14.61-10.26,26.79-14.34,40.11,2.33,4.8,5.6,11.54,5.83,16.97,5.05,120.49,33.56,339.13,32.75,434.2l-.5,59c16.16-34.97,22.22-71.14,20.32-110.25Z"/><path d="M1718.13,724.93c1.37,36.05-1.68,69.1-11.36,102.4-2.11,7.27-9.36,26.98-18.72,21.31-1.86-1.13-3.46-5.79-3.33-8.37,1.12-21.64,2.01-40.8.32-62.4l-16.5-209.8c-4.63-58.93-9.62-115.12-11.48-173.95-.3-9.59-5.01-19.53-4.85-28.11.2-10.34,16.74-50.73,21.02-50.9,1.16-.05,4.13,2.1,4.75,3.85l37.06,105.54c2.66,7.58,3.65,30.38-2.74,28.51-8.37-2.46-7.94-12.46-17.27-15.64,2.9,99.49,19.34,188.18,23.11,287.55ZM1693.2,840.9c28.86-56.22,16.43-162.51,9.31-226.93-6.84-61.92-12.66-121.74-14.97-184.04-.16-4.21,2.4-9.48,4.67-10.45,6.42,7.41,10.82,14.34,18.85,17.93l-37.77-108.87c-6.57,13.29-11.16,25.14-14.73,37.48,2.52,6.7,5.03,14.56,5.33,21.76l2.37,56.4,10.51,141.07c6.49,87.12,16.1,165.46,16.43,255.65Z"/><path d="M472.16,637.17c-3.82-12.66-7.64-26.01-6.39-37.4,1.82-16.54,12.31-25.19,28.09-27.91-1.35-2.79-4.67-6.35-6.97-6.37-2.91-.02-7.87,3.26-9.37,5.5l-2.41,3.6c-2.68,4-6.96-7.52,7.36-24.96-3.4-13.03-10.48-26.34-18.64-37.71-9.01,3.58-20.88-.02-24.97-8.93-2.03-4.43,1.59-15.19,4.73-19.27,20.99-1.43,31.09,25.19,41.63,41.33l5.07-33.45c1.04-6.88,4.44-17,9.68-21.07,6.25-4.85,15.82.59,18.97,5.57,3.71,5.87,2.54,14.67-1.55,19.82l-6.03-7.57c-1.35-1.7-6.12-3.51-8.24-3.32-2.55.24-6.72,4.92-7.08,7.53l-7.76,55.33c10.52,4.95,21.09,11.42,28.09,21.37,2.47,3.52-3.07,14.16-7.27,14.66-9.21,1.09-19.45,2.29-27.6,5.15s-11.74,11.04-9.7,18.83l12.37,47.41c5.35,20.51,7.45,42.23,2.3,63.18-2.95-28.64-6.06-53.94-14.32-81.32Z"/><path d="M1153.21,589.25c-3.03,4.3,16.29,6.38,13.11,16.14-6.01.82-16.31-1.59-18.18-6.5-4.78-12.5,4.65-24.06,15.88-28.68l143.24-58.93,203.9-76.77c.49,3.53-2.16,9.68-5.55,10.97l-169.13,64.43c-60.5,23.05-119.64,46.13-177.85,73.82-1.56.74-4.5,4.22-5.42,5.53Z"/><path d="M1330.82,746.77c-19.15-24.33-40.25-39.82-62.83-58.2-1.63-1.32-3.03-5.07-2.86-6.69,1.05-9.86,46.7-6.64,56.83-5.36,41.4,5.21,79.69,14.34,120.43,26.61-1.42,2.96-4.59,5.45-8.09,6.55-35.23,11.02-67.73,22.44-103.48,37.09ZM1401.32,712.4c-35.39-11.5-49.65-14.31-82.85-18.93-14.32-1.13-17.86-1.94-32.57.43l24.73,19.63c7.81,6.63,14.88,14.35,21.78,23.36l68.91-24.5Z"/><path d="M499.96,1044.44l-42.04-28.13c-11.09-7.42,15.23-38.14,20.19-48.44l39.02,26.07,20.44-33.5,44.06,30.22c1.81,5.67-1.87,13.53-4.74,18.14l-17.65,28.33-38.13-26.28-21.14,33.58ZM557.03,1026.86l18.48-31.63-36.48-25.25-17.46,32.18,35.45,24.69ZM497.81,1034.57l19.21-31.62-36.84-25.56-19.3,32.14,36.92,25.05Z"/><path d="M2329.19,637.83c10.94-13.66,47.94-22.4,55.83-34.07-15.35-6.48-35.44-6.45-49.28-1.07-1.09.42-5.92,5.83-7.16,3.18-.54-1.17-.07-6.14.73-7.33l18.33-26.99c9.74-.63,61.97-1.96,63.02,11-30.63,50.97-22.27,38.78-81.48,55.28Z"/><path d="M1727.68,640.76c21.15-20.17,49.77-32.75,69.44-57.47-6.12-3.17-9.53-4.69-11.76-6.49-2.55-2.05-2.04-11.2-.73-14.45,7.39-18.25,2.74-23.85,8.03-26.72,9.01-4.9,26.93,10.88,33.02,18.48,8.02,10.01,6.46,24.63-3.36,32.12l-18.1-2.61c-11.52,18.02-26.66,30.94-44.14,42.15-10.33,5.31-19.07,11.13-32.4,14.99ZM1804.07,560.6c-.06-1.9-3.53-6.62-5-5.75l-5.17,3.06c-1.56.93-5.2,6.1-3.62,7l6.13,3.49c1.17.66,5.46.32,6.78-.21s.96-4.49.87-7.59ZM1821.66,570.62c1.54-3.99-5.49-12.5-8.89-11.3-2.72.95-4.24,9.05-2.03,10.91,1.89,1.59,10.03,2.72,10.92.4Z"/><path d="M1869.8,529.85c1.36-.81,4.25-2.29,5.3-2.86s2.17,3.61,2.13,4.84l-.96,26.31c-.2,5.45,4.49,11.76,8.87,12.47,5.26.86,12.12-1.77,14.65-7.19,7.95-17.07-10.09-36.8,4.78-46.62l6.49,36.34c.67,3.74,4.94,9.19,8.11,11.1,3.6,2.17,10.04,1.19,14.1-2.2l-7.67-23.27c-2.52-7.63-1.99-16.32,2.45-23.51l9.22,26.93c6.58,19.21-1.66,38.39-14.24,38.63-6.91.13-11.81-4.3-17.71-11.55l-7.65,11.14c-2.82,4.11-11,6.6-16.32,5.37-4.46-1.03-10.31-7.93-10.58-13.77l-1.27-27.14c-.15-3.16-1.08-3-5.58.66l5.89-15.68Z"/><path d="M2280.16,1041.6c35.81-18.43,36.58-35.3,69.85-55,10.89-6.45,21.15-4.24,32.4,1.3,13-2.53,13.33-16.36,19.49-18.58l4.72,9.25c.88,1.73,6.92,1.07,7.92-.01,1.44-6.07,3.65-14.13,6.26-19.16,6.47,11.33,1.92,23.09-6.5,31.22-3.5,3.39-13.73.71-18.43-.15-25.43,31.25-23.66-25.18-76.5,30.92-16.96,18.01-38.07,31.21-64.39,33.17l25.18-12.96Z"/><path d="M1453.31,539.41c4.96,10.77-3.48,32.09,8.71,39.15,4.18,2.42,11.67-.42,14.18-3.72,10.11-13.31-7.51-29.44,4.05-42.3,7.71,13.11,2.35,26.32,11.79,36.77,2.8,3.1,12.01,4.54,14.33,1.19.21-15.13-13.94-25.61-2.92-42.03l9.36,28.48c2.58,7.85-.48,21.18-6.78,26.39-8.3,6.87-18.19.12-23.27-7.28l-6.5,11.11c-1.81,3.09-8.91,6.16-12.85,5.82-24.42-2.09-7.02-50.95-21.32-35.32,2.53-6.18,5.15-10.66,11.22-18.25Z"/><path d="M1652.63,1012.93l-38.75,18.19c-.95-8.14,4.8-13.56,12.1-16.74l68.24-29.64,79.7-35.49c1.47,10.52-5.31,11.72-11.81,14.63l-109.48,49.05Z"/><path d="M1058.88,917.99l-19.98,33c-17.06-9.06-31.77-18.58-47.96-30.25,3.57-10.35,19.44-37.41,23.7-41.25,1.58-1.43,6.89.04,8.79,1.24l32.05,20.09c5.99,3.75,7.15,10.98,3.4,17.18ZM1035.8,941.35l18.85-31.89-36.41-23.28-19.93,31.93,37.48,23.24Z"/><path d="M2531.51,922.79l-21.72,32.62c-17.48-10.09-30.56-19.26-46.38-31.46l22.94-39.72c1.28-2.22,7.67-1.53,9.68-.16l32.29,21.89c5.37,3.64,7.29,10.67,3.19,16.83ZM2508.33,945.64l18.94-31.37-36.07-24.57-19.44,32.55,36.57,23.39Z"/><path d="M855.09,805.95l-123.77,59.06c.42-4.56,2.9-11.08,5.69-13.94l124.93-57.92c.53,5.32-2.36,10.64-6.86,12.79Z"/><path d="M1445.49,819.51c.19,2.78,1.24,6.55,2.51,7.78,1.59,1.54,7.78,1.77,9.63.53,12.87-8.62-.54-22.49,10.08-36.47l3.95,20.63c.51,2.65,4.35,7.51,6.72,9,2.18,1.36,8.06.07,9.15-2.5-1.66-9.67-8.09-19.4.32-29.22l6.39,25.12c1.41,5.55-3.3,14.25-7.23,17.23-5.8,4.4-14.1.25-20.06-1.64-4,6.16-9.21,12-15.7,11.34-13.34-1.35-10.53-11.88-15.1-27.82-1.08-3.77,2.61-10.17,8-13.46l1.33,19.48Z"/><path d="M2067.12,1069.46c-.39-9.26,6.56-13.88,14.31-17.57l105.95-50.43c.75,5.58-2.14,10.81-6.71,13.02l-113.56,54.98Z"/><path d="M2508.91,1005.71l-58.51,25.67c-2.26-6.89,3.82-13.07,10.6-15.91l103.41-43.32c1.49,6.94-3.51,11.78-9.41,14.25l-46.11,19.3Z"/><path d="M1119.85,1069.35c-1.18-6.29,4.21-13.69,10.26-16.9l93.69-49.84c1.8,5.83-1.51,11.51-6.86,13.96l-97.09,52.78Z"/><path d="M1894.07,470.19c7.5-35.9,2.8-70-23.05-94.88.49-5.56,1.87-11.37,4.36-16.95,28.66,29.08,40.86,74.64,18.69,111.83Z"/><path d="M327.78,1081.62c-1.26-9.15,4.45-13,11.04-16.4l90.22-46.55c3.17,9.95-3.58,11.64-9.23,14.61l-92.03,48.34Z"/><path d="M1340.65,838.25c-17.03,5.5-52.55-15.63-51.23-36.23,14.57.54,26.46,5.81,37.7,12.85,6.45,6.31,11.66,11.41,13.53,23.38ZM1329.68,829.32c-7.23-10.77-16.9-14.64-27.67-16.9,6.43,9.89,16.68,16.51,27.67,16.9Z"/><path d="M1180.84,744.69c-3.74-3.16-3.72-7.16-2.73-10.66,6.28-22.09-2.03-41.22-20.05-54.89-3.16-2.39-.53-11.73,2.98-15.55,28.9,16.96,30.55,49.26,19.8,81.09Z"/><path d="M959.59,966.49c1.5,5.1-2.99,15.11-7.92,18.45-1.78,1.2-7.73,1.3-9.25.08-12.42-10.02-2.1-47,7.27-54.37l-7.14,33.15c-.53,2.45,4.42,9.05,6.83,8.69s5.35-2.69,10.21-6Z"/><path d="M746.19,923.4c-18.02,18.96-33.04,38.82-54.65,52.91l59.14-62.29-7.48-4.62,22.15-10.12c-2.13,8.95-4.61,16.39-7.64,23.72-2.03-.68-3.62-1.08-3.44-1.98l1.29-6.45-9.37,8.82Z"/><path d="M453.66,834.45c-34.54,11.48-51.65,31.13-80.87,48.08,18.15-16.33,37.06-31.57,59.21-42.39l18.41-9-9.33-5.01,24.37-.26c-5.24,8.94-8.25,12.75-15.96,19.68l4.17-11.1Z"/><path d="M1311.42,612.59c-28.93-.66-47.56,6.94-71.72,24.84,15.67-22.25,44.81-27.69,69.63-28.52l-4.41-7.07c8.91,3.97,11.66,5.46,19.24,10.24l-19.48,10.04,6.73-9.53Z"/><path d="M889.78,672.25c-7.34,3.3-13.72,4.86-19.96,4.41l4.31-4.08c.62-.58,1.13-1.45-.08-1.76-24.72-6.29-50.85-9.66-72.47-22.46l72.18,18.66-3.52-8.47,19.54,13.7Z"/><path d="M919.24,509.96c-3.06-5.21-2.99-10.9-3.27-17.96l-1.12-27.9-1.6-25.97-8.06,11.01c1.32-9.94,3.73-15.37,8.79-24.79l12.68,20.18-9.92-6.94c-.49,29.24,5.67,41.14,2.5,72.38Z"/><path d="M1450.93,875.07c-20.71,11.01-39,27.25-55.87,45.22,11.96-21.64,33.88-34.2,52.79-47.72l-8.01-2.72c8.06-3.47,13.95-4.58,22.13-2.49l-10.64,15.49-.4-7.78Z"/><path d="M1726.03,575c-5.53-7.9-7.88-11.23-11.41-19.25l7.55,6.19-2.81-33.99-1.99-23.51c-.49-5.79-3.26-11.45,2.07-14.75l2.01,20.26,2.05,23.96,2.59,30.34,7.92-12.17-7.98,22.92Z"/><path d="M2129.73,555.84l7.31-9.82c-1.37,9.28-3.44,14.62-7.68,23.42l-12.56-19.62c4.19,1.46,5.3,3.5,9.35,8.1l-2.18-23.94-4.13-45.49c3.63,8.43,4.79,16.12,5.52,23.64l2.14,22.03,2.22,21.67Z"/><path d="M1107.61,561.15c-5.31-8.04-7.83-12.23-12.45-21.18,4.64,1.59,5.65,3.71,8.52,7.88l-4.15-45.74c-.78-8.59-3.77-16.65.69-24.95l7.58,69.27,6.05-8.29c-1.13,8.82-2.5,12.85-6.24,23.01Z"/><path d="M1429.69,775.55c-13.34,4.43-25.92,9-40.9,11.55,12.76-6.88,26.18-9.51,39.78-14.46l33.02-12.02-7.88-4.36c7.38-.86,13.61-.34,22.48,1.74l-14.42,14.01,1.94-7.77-34.03,11.3Z"/><path d="M1538.37,518.21l-8.7-19.56c-.27-.61,2.26-2.32,2.63-1.75l3.53,5.32c1.27-21.17-4.61-41.82-.94-64.38l2.33,26.4,2.51,40.08c3.11-5.12,4.26-7.27,6.17-9.35-.75,9.35-2.81,14.76-7.54,23.26Z"/><path d="M2058.99,765.96c-7.08-7.19-8.78-9.03-13.85-17.16l8.96,4.39-7.91-39.18c6.52,11.09,7.14,23.29,10.31,36.15l5.56-6.95-3.06,22.76Z"/><path d="M2417.36,766.5l-11.96,13.52-3.47-15.83,4.34,2.63,12.43-34.28c.7,13.77-5.81,23.3-9,36.38l7.66-2.43Z"/><path class="cls-1" d="M1887.2,1036.65c-26.14-50.41,3.53-110.5,35.56-152.77,3.15.88,3.35,5.31,1.48,8.04-22.68,33.11-59.09,100.37-22.54,134.19,26.23,24.28,73.98-10.59,95.15-29.51,48.79-43.6,103.91-94.53,173.28-100.56-9.3-19.66-10.76-40.04-4.51-60.2,10.01-32.32,30.21-65.93,62.52-79.81,5.69-2.45,14.45-.24,16.61,4.93l10.87,26.06c5.58,13.39,17.55,23.21,31.73,27.32,20.57,5.97,43.35,1.12,59.16-14.15,15.47-14.95,21.48-32.89,30.37-37.55,5.84-3.06-13.13,23.7,3.98,38.61,9,7.84,19.95,10.52,32.48,7.32,26.42-6.76,25.86-35.8,39.37-53.76.1,15.4,2.09,25.4,11.7,34.87,17.44,17.15,43.9,20.35,63.88,4.32-3.07-15.87-7.7-30.06-14.13-44.32-12.86-28.53-22.54-56.77-28.48-87.64-6.98-36.28-14.05-11.11,1.21-58.12l34.8,49.8c-7.36-.81-11.49-1.82-16.26.06l31.69,87.31c8.77,24.18-.87,88.38-31.71,97.83-24.57,7.53-47.67-5.96-58.54-28.32-7.61-15.65-9.23,7.69-29.2,26.96-10.05,9.69-24.69,12.26-37.07,7.58-11.64-4.4-19.88-17.2-22.26-29.45-3.08-15.92-16.72,30.63-53.97,38.31-25.39,5.23-47.86-6.73-57.47-29.33-2.99-7.02-12.09-26.03-17.84-29.17-15.32-8.37-43.52,21.65-52.84,38.37-4.92,8.83-1.21,18.71,3.56,26.69,19.24,32.18,43.25,37.6,68.95,58.56-3.13,13.02-5.59,22.83-9.68,34.41-19.11-11.13-34.64-19.19-55.03-20.55-23.42-1.56-46.29,2.15-67.79,11.97-23.4,10.68-44.81,24.31-64.15,41.31l-57.37,50.44c-14.54,12.78-30.38,24.11-49.61,28.53-23.34,5.37-47.06-7.77-57.86-28.6Z"/><path class="cls-1" d="M245.26,982.38c-29.73-47.81.68-114.02,32.22-155-21.43-17.85-11.69-61.61-3.94-83.58l.12,27.13c.07,15.25,9.79,33.18,21.22,31.13,3.7-.66,8.46-4.29,13.47-7.42-3.77,13.16-11.1,30.47-24.99,34.9-19.92,31.02-48.24,78.53-38.61,116.12,5.44,21.24,25.68,33.98,47,29.43,31.18-6.66,65.8-39.32,90.65-60.75,34.96-30.15,89.22-64.74,138.2-66.29-10.39-14.9-12.89-30.5-10.29-47.35,5.87-37.94,25.21-72.18,57.43-93.12,8.1-5.27,18.03-4.62,23.11,3.89l16.51,27.61c15.45,25.85,35.51,26.23,34.24,21.84-3.41-11.8-23.73-29.82-9.25-77.66,5.84-19.3,17.79-34.78,38.13-39.59,16.3-3.86,33.29-3.86,49.55,1.66,20.31,6.9,39.35,14.45,59.24,22.69,46.92,19.44,93.08,31.87,145.68,37.98l-16.96,32.44c-45.83-6.9-89.51-.4-130.41,19.58l-52.34,25.57c-20.43,9.98-41.81,16.07-64.68,19.84l-6.36,20.56-5.27-19.51c-66.26-4.43-56.12-78.97-86.7-59.33-16.85,10.83-33.21,25.69-40.61,45.36-2.88,7.66,4.42,19.35,8.48,25.55,19.18,29.26,43.19,34.95,68.22,53.78l-9.36,37.3c-42.28-31.3-96.97-25.88-140.63-2.29-31.78,17.18-58.9,39.58-86.07,63.47-15.74,13.84-31.16,27.95-50.11,35.35-26.19,10.22-52.5,1.86-66.9-21.31ZM716.88,752.43l75.9-32.01c1.63-.69,4.26-5.4,3.57-6.72l-67.11-26.28c-8.9-3.49-17.18-5.25-26.07-5.47l.5-3.24c.11-.73-2.65-1.31-2.86-.61l-1.17,3.79-1.1,3.62c-.66,2.15-20.84-8.84-44.08-2.91-13.67,3.49-19.91,15.58-15.2,29.47l16.9,49.81,4.47,7.42c6.98-7.67,33.4-7.23,56.27-16.87Z"/><path class="cls-1" d="M2113.23,715.84c3.04,32.64,3.69,64.23-.06,96.63-3.16,21.86-6.85,42.46-17.29,62.81.07-36.15.62-68.55-1.87-103.38l-9.42-131.68-7.77-90.35-9.94-159.41c-.5-8.06-3.06-16.8-5.31-24,4.13-13.16,8.63-24.55,15.28-37.86l30.36,82.61c3.02,8.22,4.65,15.47,4.51,25.59l-17.07-20.61c-.13.29-2.77,5.26-3.38,7.02-1.3,18.51.07,39.17,1.62,58.4l9.37,116.45,10.96,117.79Z"/><path class="cls-1" d="M1096.6,763.05c1.9,39.12-4.15,75.28-20.32,110.25l.5-59c.81-95.07-27.71-313.71-32.75-434.2-.23-5.43-3.5-12.17-5.83-16.97,4.08-13.33,8.21-25.5,14.34-40.11l23.83,63.25c6.24,16.56,13.16,31.04,15.86,50.13-8.41-7.68-13.52-14.09-20-22.48-2.36,5.59-3.79,12.08-3.46,17.89l2.2,38.48,19.91,199.45c3.12,31.26,4.15,60.78,5.73,93.32Z"/><path class="cls-1" d="M1693.2,840.9c-.33-90.18-9.94-168.53-16.43-255.65l-10.51-141.07-2.37-56.4c-.3-7.2-2.81-15.06-5.33-21.76,3.56-12.35,8.16-24.19,14.73-37.48l37.77,108.87c-8.02-3.58-12.42-10.52-18.85-17.93-2.27.97-4.83,6.24-4.67,10.45,2.32,62.3,8.14,122.12,14.97,184.04,7.11,64.42,19.55,170.71-9.31,226.93Z"/><path class="cls-1" d="M497.81,1034.57l-36.92-25.05,19.3-32.14,36.84,25.56-19.21,31.62ZM486.02,999.3c-.9,1.58-2.93,6.79-1.18,7.27l7.62,2.07c1.82.49,6.64-2.87,5.91-4.63-2.14-5.18-11.33-6.49-12.35-4.71Z"/><path class="cls-1" d="M557.03,1026.86l-35.45-24.69,17.46-32.18,36.48,25.25-18.48,31.63ZM554.08,996.03l-4.4-8.05c-.79-1.44-6.92,1.3-6.12,2.75l3.33,6.03c-.34,3.05-1.73,6.43.02,7.5,2.66,1.63,6.98,2.61,7.56.62.73-2.5.51-7.21-.39-8.85Z"/><path class="cls-1" d="M1804.07,560.6c.09,3.09.46,7.06-.87,7.59s-5.62.88-6.78.21l-6.13-3.49c-1.58-.9,2.05-6.07,3.62-7l5.17-3.06c1.47-.87,4.94,3.85,5,5.75Z"/><path class="cls-1" d="M1821.66,570.62c-.89,2.32-9.03,1.2-10.92-.4-2.21-1.86-.69-9.95,2.03-10.91,3.4-1.19,10.43,7.31,8.89,11.3Z"/><path class="cls-1" d="M1035.8,941.35l-37.48-23.24,19.93-31.93,36.41,23.28-18.85,31.89ZM1034.43,912.12c-2.74-5.1-7.75-8.45-10.6-7.1-3.28,1.56-6.71,4.48-7.1,7.23-.41,2.89,4.03,10.4,6.36,8.95,3.5-2.18,8.85-6.53,11.34-9.08Z"/><path class="cls-1" d="M2508.33,945.64l-36.57-23.39,19.44-32.55,36.07,24.57-18.94,31.37ZM2496.79,917.07c5.48-2.44,6.55-2.56,6.18-3.22l-1.98-3.56c-.62-1.11-4.97,1.48-4.76,2.73s.65,4.68.56,4.05Z"/><path class="cls-1" d="M1329.68,829.32c-10.99-.39-21.24-7.01-27.67-16.9,10.77,2.27,20.43,6.13,27.67,16.9Z"/><path d="M716.88,752.43c-22.87,9.64-49.29,9.2-56.27,16.87l-4.47-7.42-16.9-49.81c-2.57-7.57-1.88-14.61,1.49-20.01,2.55-4.09,6.54-6.94,13.71-9.46,17.87-6.29,36.73-4.02,47.94-1.76,3,.51,6.1,1.1,9.29,1.81,6.32,1.39,12.18,3.02,17.56,4.76l67.11,26.28c.69,1.33-1.94,6.04-3.57,6.72l-75.9,32.01ZM769.7,723.54c-1.15-4.03-39.69-17.28-71.25-21.63-8.93-1.23-15.18-2.97-26.29-2.51-17.63.73-21.53,3.37-24.17,6.25-2.22,2.41-2.81.58-1.71,3.71l16.59,47.23c18.99-1.66,39.05-6.22,56.98-14.01l49.85-19.04Z"/></svg>